<?xml version="1.0" encoding="UTF-8"?>
<!DOCTYPE svg PUBLIC "-//W3C//DTD SVG 1.1//EN" "http://www.w3.org/Graphics/SVG/1.1/DTD/svg11.dtd">
<svg xmlns="http://www.w3.org/2000/svg" version="1.1" width="500px" height="500px" style="shape-rendering:geometricPrecision; text-rendering:geometricPrecision; image-rendering:optimizeQuality; fill-rule:evenodd; clip-rule:evenodd" xmlns:xlink="http://www.w3.org/1999/xlink">
<g><path style="opacity:0.408" fill="#92a2aa" d="M 151.5,192.5 C 148.213,188.721 144.213,185.887 139.5,184C 106.997,183.169 74.6641,183.336 42.5,184.5C 41.1667,184.5 39.8333,184.5 38.5,184.5C 38.9175,183.778 39.5842,183.278 40.5,183C 73.8333,182.333 107.167,182.333 140.5,183C 145.588,184.592 149.255,187.759 151.5,192.5 Z"/></g>
<g><path style="opacity:1" fill="#15384c" d="M 42.5,184.5 C 74.6641,183.336 106.997,183.169 139.5,184C 144.213,185.887 148.213,188.721 151.5,192.5C 151.427,194.027 152.094,195.027 153.5,195.5C 153.5,196.833 153.5,198.167 153.5,199.5C 152.119,196.926 150.452,194.426 148.5,192C 146.361,191.736 144.694,192.569 143.5,194.5C 144.919,196.336 146.086,198.336 147,200.5C 147.667,230.833 147.667,261.167 147,291.5C 146.832,261.331 146.332,231.331 145.5,201.5C 145.155,198.802 143.822,196.802 141.5,195.5C 139.5,194.5 137.5,193.5 135.5,192.5C 105.338,191.502 75.0046,191.169 44.5,191.5C 47.9619,190.518 51.6286,190.185 55.5,190.5C 86.0518,190.64 116.385,190.474 146.5,190C 143.772,187.135 140.438,185.635 136.5,185.5C 105.338,184.502 74.0044,184.168 42.5,184.5 Z"/></g>
<g><path style="opacity:0.997" fill="#0d3e51" d="M 38.5,184.5 C 39.8333,184.5 41.1667,184.5 42.5,184.5C 74.0044,184.168 105.338,184.502 136.5,185.5C 112.498,185.333 88.4977,185.5 64.5,186C 66.556,186.311 68.556,186.811 70.5,187.5C 79.9235,186.523 89.5901,186.19 99.5,186.5C 100.696,186.846 100.696,187.346 99.5,188C 83.9256,188.824 68.4256,188.657 53,187.5C 52.5,188 52,188.5 51.5,189C 53.0581,189.21 54.3915,189.71 55.5,190.5C 51.6286,190.185 47.9619,190.518 44.5,191.5C 44.5,191.833 44.5,192.167 44.5,192.5C 39.0899,190.565 36.4232,192.565 36.5,198.5C 35.1717,229.931 35.1717,261.264 36.5,292.5C 37.3382,292.842 37.6716,293.508 37.5,294.5C 37.427,296.027 38.0937,297.027 39.5,297.5C 40.1667,298.5 40.8333,299.5 41.5,300.5C 41.5774,301.75 42.244,302.583 43.5,303C 42.2161,303.684 41.0495,303.517 40,302.5C 39.1667,303.5 38.3333,304.5 37.5,305.5C 35.8513,304.352 34.3513,303.019 33,301.5C 32.6012,301.728 32.4346,302.062 32.5,302.5C 31.5,301.833 30.5,301.167 29.5,300.5C 28.3263,299.486 27.6596,298.153 27.5,296.5C 27.3334,263.832 27.5,231.165 28,198.5C 29.2754,196.283 30.2754,193.949 31,191.5C 32.7073,189.963 34.2073,188.296 35.5,186.5C 35.9731,185.094 36.9731,184.427 38.5,184.5 Z"/></g>
<g><path style="opacity:0.996" fill="#003e52" d="M 136.5,185.5 C 140.438,185.635 143.772,187.135 146.5,190C 116.385,190.474 86.0518,190.64 55.5,190.5C 54.3915,189.71 53.0581,189.21 51.5,189C 52,188.5 52.5,188 53,187.5C 68.4256,188.657 83.9256,188.824 99.5,188C 100.696,187.346 100.696,186.846 99.5,186.5C 89.5901,186.19 79.9235,186.523 70.5,187.5C 68.556,186.811 66.556,186.311 64.5,186C 88.4977,185.5 112.498,185.333 136.5,185.5 Z"/></g>
<g><path style="opacity:0.122" fill="#737b87" d="M 44.5,192.5 C 44.5,192.167 44.5,191.833 44.5,191.5C 75.0046,191.169 105.338,191.502 135.5,192.5C 104.847,192.8 74.514,192.8 44.5,192.5 Z"/></g>
<g><path style="opacity:0.996" fill="#4b6576" d="M 44.5,192.5 C 42.4984,195.515 40.165,197.515 37.5,198.5C 37.1667,198.5 36.8333,198.5 36.5,198.5C 36.4232,192.565 39.0899,190.565 44.5,192.5 Z"/></g>
<g><path style="opacity:0.247" fill="#c8ccd0" d="M 151.5,192.5 C 152.906,192.973 153.573,193.973 153.5,195.5C 152.094,195.027 151.427,194.027 151.5,192.5 Z"/></g>
<g><path style="opacity:0.997" fill="#154155" d="M 153.5,199.5 C 154.664,230.664 154.831,261.997 154,293.5C 152.681,297.472 150.847,301.139 148.5,304.5C 148.5,304.833 148.5,305.167 148.5,305.5C 148.167,305.5 147.833,305.5 147.5,305.5C 146.5,305.5 145.5,305.5 144.5,305.5C 144.611,304.883 144.944,304.383 145.5,304C 143.873,304.43 142.373,304.596 141,304.5C 140.751,303.376 140.251,302.376 139.5,301.5C 108.039,302.829 76.7059,302.829 45.5,301.5C 75.8352,301.667 106.168,301.5 136.5,301C 137.416,300.722 138.082,300.222 138.5,299.5C 142.943,298.336 145.276,295.336 145.5,290.5C 145.5,260.833 145.5,231.167 145.5,201.5C 146.332,231.331 146.832,261.331 147,291.5C 147.667,261.167 147.667,230.833 147,200.5C 146.086,198.336 144.919,196.336 143.5,194.5C 144.694,192.569 146.361,191.736 148.5,192C 150.452,194.426 152.119,196.926 153.5,199.5 Z"/></g>
<g><path style="opacity:0.235" fill="#96a5ae" d="M 153.5,195.5 C 154.268,196.263 154.768,197.263 155,198.5C 155.667,230.5 155.667,262.5 155,294.5C 154.04,298.787 151.874,302.12 148.5,304.5C 150.847,301.139 152.681,297.472 154,293.5C 154.831,261.997 154.664,230.664 153.5,199.5C 153.5,198.167 153.5,196.833 153.5,195.5 Z"/></g>
<g><path style="opacity:0.039" fill="#f9fafa" d="M 141.5,195.5 C 143.822,196.802 145.155,198.802 145.5,201.5C 145.5,231.167 145.5,260.833 145.5,290.5C 145.167,290.5 144.833,290.5 144.5,290.5C 144.481,260.655 144.481,230.988 144.5,201.5C 143.441,199.466 142.441,197.466 141.5,195.5 Z"/></g>
<g><path style="opacity:0.427" fill="#d2f7d5" d="M 127.5,202.5 C 127.389,203.117 127.056,203.617 126.5,204C 121.968,205.622 117.301,206.622 112.5,207C 111.62,208.356 111.286,209.856 111.5,211.5C 110.193,209.777 110.193,207.943 111.5,206C 116.772,204.512 122.105,203.346 127.5,202.5 Z"/></g>
<g><path style="opacity:0.996" fill="#20e14e" d="M 127.5,202.5 C 131.886,201.513 134.22,203.179 134.5,207.5C 133.505,213.135 132.838,218.802 132.5,224.5C 131.18,225.942 129.514,226.608 127.5,226.5C 126.405,224.642 125.071,222.975 123.5,221.5C 121.712,222.283 120.712,223.616 120.5,225.5C 118.167,225.833 116.833,227.167 116.5,229.5C 115.167,229.5 113.833,229.5 112.5,229.5C 112.5,230.5 112.5,231.5 112.5,232.5C 109.612,232.22 108.112,233.553 108,236.5C 107.601,236.272 107.435,235.938 107.5,235.5C 105.351,232.666 104.351,232.999 104.5,236.5C 101.858,236.512 100.525,235.179 100.5,232.5C 105.464,227.035 110.63,221.702 116,216.5C 116,213.7 114.5,212.033 111.5,211.5C 111.286,209.856 111.62,208.356 112.5,207C 117.301,206.622 121.968,205.622 126.5,204C 127.056,203.617 127.389,203.117 127.5,202.5 Z"/></g>
<g><path style="opacity:0.137" fill="#c3c5c7" d="M 36.5,198.5 C 36.8333,198.5 37.1667,198.5 37.5,198.5C 36.5223,229.802 36.189,261.135 36.5,292.5C 35.1717,261.264 35.1717,229.931 36.5,198.5 Z"/></g>
<g><path style="opacity:0.604" fill="#cdf7d3" d="M 127.5,202.5 C 132.227,200.306 135.227,201.806 136.5,207C 135.528,213.045 134.195,218.878 132.5,224.5C 132.838,218.802 133.505,213.135 134.5,207.5C 134.22,203.179 131.886,201.513 127.5,202.5 Z"/></g>
<g><path style="opacity:0.188" fill="#caf4d1" d="M 176.5,214.5 C 184.99,213.343 193.657,213.176 202.5,214C 204.491,214.374 206.158,215.207 207.5,216.5C 205.784,216.371 204.117,216.038 202.5,215.5C 202.167,215.5 201.833,215.5 201.5,215.5C 193.35,214.507 185.017,214.174 176.5,214.5 Z"/></g>
<g><path style="opacity:0.974" fill="#47e463" d="M 436.5,213.5 C 439.833,213.5 443.167,213.5 446.5,213.5C 446.173,223.681 446.506,233.681 447.5,243.5C 447.44,244.043 447.107,244.376 446.5,244.5C 445.501,234.522 445.168,224.522 445.5,214.5C 442.833,214.5 440.167,214.5 437.5,214.5C 437.5,232.5 437.5,250.5 437.5,268.5C 440.167,268.5 442.833,268.5 445.5,268.5C 445.185,264.629 445.518,260.962 446.5,257.5C 446.5,261.5 446.5,265.5 446.5,269.5C 443.167,269.5 439.833,269.5 436.5,269.5C 436.5,250.833 436.5,232.167 436.5,213.5 Z"/></g>
<g><path style="opacity:0.949" fill="#4fe66f" d="M 176.5,214.5 C 185.017,214.174 193.35,214.507 201.5,215.5C 193.5,215.5 185.5,215.5 177.5,215.5C 177.5,233.167 177.5,250.833 177.5,268.5C 180.5,268.5 183.5,268.5 186.5,268.5C 183.375,269.479 180.042,269.813 176.5,269.5C 176.5,251.167 176.5,232.833 176.5,214.5 Z"/></g>
<g><path style="opacity:0.996" fill="#26e150" d="M 202.5,215.5 C 204.117,216.038 205.784,216.371 207.5,216.5C 208.492,216.328 209.158,216.662 209.5,217.5C 210.419,220.089 212.086,222.089 214.5,223.5C 215.254,228.463 215.587,233.463 215.5,238.5C 213.801,240.566 212.468,242.9 211.5,245.5C 210.564,246.974 209.23,247.974 207.5,248.5C 205.784,248.629 204.117,248.962 202.5,249.5C 201.737,248.732 200.737,248.232 199.5,248C 200.624,247.751 201.624,247.251 202.5,246.5C 201.011,246.467 199.678,245.967 198.5,245C 200.202,243.282 202.035,243.115 204,244.5C 204.5,244 205,243.5 205.5,243C 203.655,241.872 201.655,241.372 199.5,241.5C 201.297,240.607 202.63,239.274 203.5,237.5C 205.312,235.287 205.645,232.953 204.5,230.5C 204.771,228.62 204.104,227.287 202.5,226.5C 201.942,225.21 200.942,224.377 199.5,224C 195.179,223.501 190.846,223.334 186.5,223.5C 184.863,227.141 183.697,231.141 183,235.5C 182.933,231.569 182.766,227.736 182.5,224C 183.167,222.667 183.833,221.333 184.5,220C 183.256,219.544 182.423,220.044 182,221.5C 181.176,220.192 180.676,218.692 180.5,217C 188.011,216.829 195.345,216.329 202.5,215.5 Z"/></g>
<g><path style="opacity:0.486" fill="#ddf9e1" d="M 111.5,211.5 C 114.5,212.033 116,213.7 116,216.5C 110.63,221.702 105.464,227.035 100.5,232.5C 97.853,234.811 95.1864,237.144 92.5,239.5C 90.1455,237.812 88.1455,235.812 86.5,233.5C 88.7892,235.006 91.1226,236.173 93.5,237C 100.833,229.667 108.167,222.333 115.5,215C 113.676,214.34 112.343,213.173 111.5,211.5 Z"/></g>
<g><path style="opacity:0.878" fill="#b9f4c1" d="M 209.5,217.5 C 211.914,218.911 213.581,220.911 214.5,223.5C 212.086,222.089 210.419,220.089 209.5,217.5 Z"/></g>
<g><path style="opacity:0.845" fill="#88ec99" d="M 338.5,228.5 C 337.521,225.375 337.187,222.042 337.5,218.5C 334.5,218.5 331.5,218.5 328.5,218.5C 328.5,222.167 328.5,225.833 328.5,229.5C 326.5,229.5 324.5,229.5 322.5,229.5C 322.5,232.5 322.5,235.5 322.5,238.5C 321.521,235.375 321.187,232.042 321.5,228.5C 323.5,228.5 325.5,228.5 327.5,228.5C 327.5,224.833 327.5,221.167 327.5,217.5C 331.167,217.5 334.833,217.5 338.5,217.5C 338.5,221.167 338.5,224.833 338.5,228.5 Z"/></g>
<g><path style="opacity:0.071" fill="#def9e2" d="M 127.5,226.5 C 126.883,226.611 126.383,226.944 126,227.5C 125.096,223.355 123.262,222.689 120.5,225.5C 120.712,223.616 121.712,222.283 123.5,221.5C 125.071,222.975 126.405,224.642 127.5,226.5 Z"/></g>
<g><path style="opacity:0.18" fill="#b6f3bf" d="M 186.5,223.5 C 190.846,223.334 195.179,223.501 199.5,224C 200.942,224.377 201.942,225.21 202.5,226.5C 197.713,224.632 192.88,223.965 188,224.5C 187.501,229.823 187.334,235.156 187.5,240.5C 193.182,241.07 198.515,240.07 203.5,237.5C 202.63,239.274 201.297,240.607 199.5,241.5C 195.167,241.5 190.833,241.5 186.5,241.5C 186.5,235.5 186.5,229.5 186.5,223.5 Z"/></g>
<g><path style="opacity:0.053" fill="#f6fcf6" d="M 132.5,224.5 C 132.586,225.496 132.252,226.329 131.5,227C 129.934,227.765 128.601,227.598 127.5,226.5C 129.514,226.608 131.18,225.942 132.5,224.5 Z"/></g>
<g><path style="opacity:0.141" fill="#eafaeb" d="M 233.5,227.5 C 240.176,225.587 245.843,227.254 250.5,232.5C 248.391,231.609 246.391,230.442 244.5,229C 243.207,228.51 241.873,228.343 240.5,228.5C 238.393,227.532 236.059,227.198 233.5,227.5 Z"/></g>
<g><path style="opacity:0.159" fill="#ebfaec" d="M 366.5,227.5 C 371.53,226.112 376.53,226.612 381.5,229C 382.381,229.708 383.047,230.542 383.5,231.5C 378.307,228.453 372.64,227.119 366.5,227.5 Z"/></g>
<g><path style="opacity:0.086" fill="#dcf8de" d="M 120.5,225.5 C 119.5,227.167 118.167,228.5 116.5,229.5C 116.833,227.167 118.167,225.833 120.5,225.5 Z"/></g>
<g><path style="opacity:0.997" fill="#1ae04c" d="M 201.5,215.5 C 201.833,215.5 202.167,215.5 202.5,215.5C 195.345,216.329 188.011,216.829 180.5,217C 180.676,218.692 181.176,220.192 182,221.5C 182.423,220.044 183.256,219.544 184.5,220C 183.833,221.333 183.167,222.667 182.5,224C 182.766,227.736 182.933,231.569 183,235.5C 183.697,231.141 184.863,227.141 186.5,223.5C 186.5,229.5 186.5,235.5 186.5,241.5C 190.833,241.5 195.167,241.5 199.5,241.5C 201.655,241.372 203.655,241.872 205.5,243C 205,243.5 204.5,244 204,244.5C 202.035,243.115 200.202,243.282 198.5,245C 199.678,245.967 201.011,246.467 202.5,246.5C 201.624,247.251 200.624,247.751 199.5,248C 200.737,248.232 201.737,248.732 202.5,249.5C 202.5,249.833 202.5,250.167 202.5,250.5C 197.167,250.5 191.833,250.5 186.5,250.5C 186.5,256.5 186.5,262.5 186.5,268.5C 183.5,268.5 180.5,268.5 177.5,268.5C 177.5,250.833 177.5,233.167 177.5,215.5C 185.5,215.5 193.5,215.5 201.5,215.5 Z"/></g>
<g><path style="opacity:0.288" fill="#dbf9e0" d="M 435.5,213.5 C 439.298,212.517 443.298,212.183 447.5,212.5C 447.334,221.839 447.5,231.173 448,240.5C 451.5,236.333 455,232.167 458.5,228C 462.833,227.333 467.167,227.333 471.5,228C 472.051,230.391 471.051,232.225 468.5,233.5C 468.703,231.956 469.37,230.622 470.5,229.5C 466.878,228.341 463.211,228.175 459.5,229C 455.288,233.707 451.288,238.54 447.5,243.5C 446.506,233.681 446.173,223.681 446.5,213.5C 443.167,213.5 439.833,213.5 436.5,213.5C 436.167,213.5 435.833,213.5 435.5,213.5 Z"/></g>
<g><path style="opacity:0.957" fill="#99efa6" d="M 233.5,227.5 C 236.059,227.198 238.393,227.532 240.5,228.5C 236.466,228.505 232.466,228.838 228.5,229.5C 229.78,228.069 231.447,227.402 233.5,227.5 Z"/></g>
<g><path style="opacity:0.037" fill="#f0fbf1" d="M 271.5,228.5 C 273.099,229.562 274.766,229.562 276.5,228.5C 275.167,229.833 273.833,231.167 272.5,232.5C 271.566,231.432 271.232,230.099 271.5,228.5 Z"/></g>
<g><path style="opacity:0.29" fill="#b5f3be" d="M 299.5,227.5 C 302.385,227.194 305.052,227.527 307.5,228.5C 300.834,227.263 295.167,228.93 290.5,233.5C 290.5,233.167 290.5,232.833 290.5,232.5C 292.453,229.022 295.453,227.355 299.5,227.5 Z"/></g>
<g><path style="opacity:0.259" fill="#d8f8dd" d="M 366.5,227.5 C 361.983,228.932 358.316,231.599 355.5,235.5C 353.926,236.984 352.593,238.651 351.5,240.5C 353.698,232.971 358.698,228.637 366.5,227.5 Z"/></g>
<g><path style="opacity:0.878" fill="#bef4c5" d="M 419.5,227.5 C 419.5,227.833 419.5,228.167 419.5,228.5C 414.797,228.437 410.13,228.771 405.5,229.5C 409.914,226.699 414.58,226.032 419.5,227.5 Z"/></g>
<g><path style="opacity:0.996" fill="#28e151" d="M 84.5,231.5 C 85.5,231.833 86.1667,232.5 86.5,233.5C 88.1455,235.812 90.1455,237.812 92.5,239.5C 95.1864,237.144 97.853,234.811 100.5,232.5C 100.525,235.179 101.858,236.512 104.5,236.5C 104.351,232.999 105.351,232.666 107.5,235.5C 103.207,238.106 100.541,241.773 99.5,246.5C 98.5,248.167 97.1667,249.5 95.5,250.5C 93.8333,250.5 92.1667,250.5 90.5,250.5C 89.1667,249.833 88.1667,248.833 87.5,247.5C 85.7607,244.757 83.4274,242.757 80.5,241.5C 80.1667,240.5 79.5,239.833 78.5,239.5C 77.609,238.89 76.609,238.557 75.5,238.5C 74.1266,238.343 72.7932,238.51 71.5,239C 70.1667,239.667 70.1667,240.333 71.5,241C 69.3825,241.26 67.7158,242.26 66.5,244C 66.8333,244.333 67.1667,244.667 67.5,245C 66.552,245.483 65.552,245.649 64.5,245.5C 64.5,246.5 64.5,247.5 64.5,248.5C 63.448,248.351 62.448,248.517 61.5,249C 62.2524,249.671 62.5858,250.504 62.5,251.5C 62.5,252.167 62.1667,252.5 61.5,252.5C 59.4017,251.086 58.4017,251.752 58.5,254.5C 57.5,254.5 56.5,254.5 55.5,254.5C 55.5,255.5 55.5,256.5 55.5,257.5C 51.7146,257.589 50.3813,259.256 51.5,262.5C 51.0269,263.906 50.0269,264.573 48.5,264.5C 42.584,264.788 40.9174,262.121 43.5,256.5C 54.093,247.576 64.093,237.909 73.5,227.5C 75.0983,226.515 76.765,226.349 78.5,227C 80.1137,229.127 82.1137,230.627 84.5,231.5 Z"/></g>
<g><path style="opacity:0.047" fill="#f0fcf2" d="M 202.5,226.5 C 204.104,227.287 204.771,228.62 204.5,230.5C 203.326,229.486 202.66,228.153 202.5,226.5 Z"/></g>
<g><path style="opacity:0.438" fill="#cbf6d1" d="M 214.5,223.5 C 215.222,223.918 215.722,224.584 216,225.5C 216.814,230.02 216.647,234.354 215.5,238.5C 215.587,233.463 215.254,228.463 214.5,223.5 Z"/></g>
<g><path style="opacity:0.196" fill="#e7fae9" d="M 299.5,227.5 C 305.919,225.764 311.919,226.931 317.5,231C 318.252,231.671 318.586,232.504 318.5,233.5C 315.481,230.499 311.815,228.832 307.5,228.5C 305.052,227.527 302.385,227.194 299.5,227.5 Z"/></g>
<g><path style="opacity:0.302" fill="#def9e1" d="M 419.5,228.5 C 419.5,228.167 419.5,227.833 419.5,227.5C 425.252,227.963 429.752,230.629 433,235.5C 433.813,238.539 432.646,240.206 429.5,240.5C 430.974,239.416 431.807,238.082 432,236.5C 428.983,231.974 424.816,229.307 419.5,228.5 Z"/></g>
<g><path style="opacity:0.996" fill="#1fe04e" d="M 240.5,228.5 C 241.873,228.343 243.207,228.51 244.5,229C 246.391,230.442 248.391,231.609 250.5,232.5C 252.961,235.759 254.628,239.426 255.5,243.5C 255.5,246.167 255.5,248.833 255.5,251.5C 246.494,251.666 237.494,251.5 228.5,251C 227.975,250.308 227.308,249.808 226.5,249.5C 225.033,250.695 223.533,250.695 222,249.5C 220.273,249.646 220.106,250.313 221.5,251.5C 220.972,253.336 220.306,255.003 219.5,256.5C 218.274,250.521 218.274,244.521 219.5,238.5C 220.906,238.027 221.573,237.027 221.5,235.5C 223.858,233.471 226.192,231.471 228.5,229.5C 232.466,228.838 236.466,228.505 240.5,228.5 Z M 239.5,237.5 C 239.973,238.906 240.973,239.573 242.5,239.5C 243.292,240.967 243.292,242.3 242.5,243.5C 238.665,243.433 234.832,243.433 231,243.5C 230.805,242.181 230.972,240.847 231.5,239.5C 232.167,239.5 232.5,239.167 232.5,238.5C 234.764,237.781 237.097,237.448 239.5,237.5 Z"/></g>
<g><path style="opacity:0.996" fill="#21e04e" d="M 275.5,240.5 C 275.5,241.167 275.167,241.5 274.5,241.5C 272.461,242.911 271.461,244.911 271.5,247.5C 270.509,254.313 270.175,261.313 270.5,268.5C 267.5,268.5 264.5,268.5 261.5,268.5C 261.5,255.5 261.5,242.5 261.5,229.5C 264.5,229.5 267.5,229.5 270.5,229.5C 270.238,230.978 270.571,232.311 271.5,233.5C 272.107,233.376 272.44,233.043 272.5,232.5C 273.833,231.167 275.167,229.833 276.5,228.5C 279.482,228.037 282.482,227.704 285.5,227.5C 285.5,231.167 285.5,234.833 285.5,238.5C 282.482,238.335 279.482,238.502 276.5,239C 275.944,239.383 275.611,239.883 275.5,240.5 Z"/></g>
<g><path style="opacity:0.996" fill="#28e151" d="M 338.5,228.5 C 341.833,228.5 345.167,228.5 348.5,228.5C 348.5,231.833 348.5,235.167 348.5,238.5C 345.167,238.5 341.833,238.5 338.5,238.5C 338.334,245.175 338.5,251.842 339,258.5C 341.826,260.34 344.993,261.006 348.5,260.5C 348.81,263.713 348.477,266.713 347.5,269.5C 342.241,269.984 337.241,269.317 332.5,267.5C 330.533,264.784 329.033,261.784 328,258.5C 327.5,251.842 327.334,245.175 327.5,238.5C 325.833,238.5 324.167,238.5 322.5,238.5C 322.5,235.5 322.5,232.5 322.5,229.5C 324.5,229.5 326.5,229.5 328.5,229.5C 328.5,225.833 328.5,222.167 328.5,218.5C 331.5,218.5 334.5,218.5 337.5,218.5C 337.187,222.042 337.521,225.375 338.5,228.5 Z"/></g>
<g><path style="opacity:0.008" fill="#ebfbed" d="M 383.5,231.5 C 385.5,231.5 386.5,232.5 386.5,234.5C 385.167,233.833 384.167,232.833 383.5,231.5 Z"/></g>
<g><path style="opacity:0.475" fill="#d2f7d8" d="M 228.5,229.5 C 226.192,231.471 223.858,233.471 221.5,235.5C 222.578,232.092 224.911,230.092 228.5,229.5 Z"/></g>
<g><path style="opacity:0.89" fill="#aff2b7" d="M 405.5,229.5 C 402.833,232.833 399.833,235.833 396.5,238.5C 398.5,234.5 401.5,231.5 405.5,229.5 Z"/></g>
<g><path style="opacity:0.761" fill="#b6f3be" d="M 84.5,231.5 C 82.1137,230.627 80.1137,229.127 78.5,227C 76.765,226.349 75.0983,226.515 73.5,227.5C 64.093,237.909 54.093,247.576 43.5,256.5C 53.1453,246.521 62.812,236.521 72.5,226.5C 78.0378,224.354 82.0378,226.02 84.5,231.5 Z"/></g>
<g><path style="opacity:0.027" fill="#dcf9e0" d="M 204.5,230.5 C 205.645,232.953 205.312,235.287 203.5,237.5C 203.674,235.139 204.007,232.806 204.5,230.5 Z"/></g>
<g><path style="opacity:0.02" fill="#e7faea" d="M 290.5,232.5 C 290.5,232.833 290.5,233.167 290.5,233.5C 289.028,235.117 288.361,237.117 288.5,239.5C 288.59,242.336 289.257,245.003 290.5,247.5C 289.542,247.047 288.708,246.381 288,245.5C 286.805,242.775 286.472,240.109 287,237.5C 283.466,239.259 279.632,240.259 275.5,240.5C 275.611,239.883 275.944,239.383 276.5,239C 279.482,238.502 282.482,238.335 285.5,238.5C 285.5,234.833 285.5,231.167 285.5,227.5C 282.482,227.704 279.482,228.037 276.5,228.5C 279.507,226.825 282.84,226.159 286.5,226.5C 286.187,229.247 286.52,231.914 287.5,234.5C 288.265,233.388 289.265,232.721 290.5,232.5 Z"/></g>
<g><path style="opacity:0.243" fill="#caf6d1" d="M 239.5,237.5 C 237.097,237.448 234.764,237.781 232.5,238.5C 233.312,237.007 234.645,236.34 236.5,236.5C 237.726,236.52 238.726,236.853 239.5,237.5 Z"/></g>
<g><path style="opacity:0.004" fill="#fddcda" d="M 128.5,238.5 C 132.274,236.568 134.607,237.735 135.5,242C 135.472,243.07 135.139,243.903 134.5,244.5C 134.833,240.167 132.833,238.167 128.5,238.5 Z"/></g>
<g><path style="opacity:0.42" fill="#d2f7d7" d="M 221.5,235.5 C 221.573,237.027 220.906,238.027 219.5,238.5C 219.427,236.973 220.094,235.973 221.5,235.5 Z"/></g>
<g><path style="opacity:0.302" fill="#e9fbec" d="M 239.5,237.5 C 241.027,237.427 242.027,238.094 242.5,239.5C 240.973,239.573 239.973,238.906 239.5,237.5 Z"/></g>
<g><path style="opacity:0.012" fill="#dbf9df" d="M 316.5,239.5 C 315.504,240.665 314.171,241.332 312.5,241.5C 309.763,240.049 306.93,238.716 304,237.5C 302.56,238.148 301.06,238.481 299.5,238.5C 300.312,237.007 301.645,236.34 303.5,236.5C 306.863,237.015 309.863,238.348 312.5,240.5C 313.736,239.754 315.07,239.421 316.5,239.5 Z"/></g>
<g><path style="opacity:0.988" fill="#b0f2b1" d="M 373.5,237.5 C 374.167,237.5 374.5,237.833 374.5,238.5C 370.334,237.944 366.668,238.944 363.5,241.5C 363.5,240.167 363.5,238.833 363.5,237.5C 366.833,237.5 370.167,237.5 373.5,237.5 Z"/></g>
<g><path style="opacity:0.996" fill="#2fe153" d="M 419.5,228.5 C 424.816,229.307 428.983,231.974 432,236.5C 431.807,238.082 430.974,239.416 429.5,240.5C 427.973,240.427 426.973,241.094 426.5,242.5C 425.5,242.5 424.5,242.5 423.5,242.5C 423.167,240.167 421.833,238.833 419.5,238.5C 416.833,238.5 414.167,238.5 411.5,238.5C 409.973,238.427 408.973,239.094 408.5,240.5C 408.672,241.492 408.338,242.158 407.5,242.5C 406.883,242.611 406.383,242.944 406,243.5C 404.959,248.44 405.626,253.106 408,257.5C 411.189,260.451 414.689,261.118 418.5,259.5C 421.367,259.631 423.033,258.297 423.5,255.5C 427.053,255.943 430.053,257.443 432.5,260C 430.318,263.347 427.651,266.181 424.5,268.5C 422.214,268.595 420.214,269.262 418.5,270.5C 413.497,271.623 408.83,270.623 404.5,267.5C 404.027,266.094 403.027,265.427 401.5,265.5C 401.167,264.5 400.5,263.833 399.5,263.5C 399.573,261.973 398.906,260.973 397.5,260.5C 395.229,253.295 394.896,245.962 396.5,238.5C 399.833,235.833 402.833,232.833 405.5,229.5C 410.13,228.771 414.797,228.437 419.5,228.5 Z"/></g>
<g><path style="opacity:0.667" fill="#c2f6c8" d="M 419.5,238.5 C 421.833,238.833 423.167,240.167 423.5,242.5C 421.833,241.5 420.5,240.167 419.5,238.5 Z"/></g>
<g><path style="opacity:0.02" fill="#eafbec" d="M 411.5,238.5 C 411.027,239.906 410.027,240.573 408.5,240.5C 408.973,239.094 409.973,238.427 411.5,238.5 Z"/></g>
<g><path style="opacity:0.247" fill="#d1d3d5" d="M 26.5,200.5 C 26.5,231.167 26.5,261.833 26.5,292.5C 25.7515,291.469 25.0848,290.302 24.5,289C 25.6268,267.234 25.6268,245.234 24.5,223C 25.1518,215.401 25.8185,207.901 26.5,200.5 Z"/></g>
<g><path style="opacity:0.004" fill="#f9fdf9" d="M 78.5,239.5 C 79.5,239.833 80.1667,240.5 80.5,241.5C 79.1667,241.5 78.5,240.833 78.5,239.5 Z"/></g>
<g><path style="opacity:0.996" fill="#ff362d" d="M 128.5,238.5 C 132.833,238.167 134.833,240.167 134.5,244.5C 131.097,246.9 128.43,249.9 126.5,253.5C 116.702,263.798 106.702,273.965 96.5,284C 93.1871,284.864 90.8537,283.698 89.5,280.5C 88.8333,279.167 87.8333,278.167 86.5,277.5C 86.1667,276.5 85.5,275.833 84.5,275.5C 83.448,275.649 82.448,275.483 81.5,275C 82.5981,274.23 82.5981,273.397 81.5,272.5C 80.8333,271.167 79.8333,270.167 78.5,269.5C 77.448,269.351 76.448,269.517 75.5,270C 73.9625,271.707 72.2959,273.207 70.5,274.5C 69.5084,274.328 68.8417,274.662 68.5,275.5C 63.11,281.892 57.11,287.559 50.5,292.5C 48.8333,292.5 47.1667,292.5 45.5,292.5C 44.6765,290.545 44.5099,288.545 45,286.5C 49.0923,282.578 52.9257,278.578 56.5,274.5C 62.7966,269.871 68.4633,264.538 73.5,258.5C 74.8786,256.403 76.5453,256.07 78.5,257.5C 82.5,262.167 86.8333,266.5 91.5,270.5C 92.4991,273.174 94.1658,273.841 96.5,272.5C 100.234,269.769 103.234,266.436 105.5,262.5C 113.868,255.133 121.535,247.133 128.5,238.5 Z"/></g>
<g><path style="opacity:0.631" fill="#c7f6cc" d="M 80.5,241.5 C 83.4274,242.757 85.7607,244.757 87.5,247.5C 84.5726,246.243 82.2393,244.243 80.5,241.5 Z"/></g>
<g><path style="opacity:1" fill="#81ec86" d="M 116.5,229.5 C 111.167,235.5 105.5,241.167 99.5,246.5C 100.541,241.773 103.207,238.106 107.5,235.5C 107.435,235.938 107.601,236.272 108,236.5C 108.112,233.553 109.612,232.22 112.5,232.5C 112.5,231.5 112.5,230.5 112.5,229.5C 113.833,229.5 115.167,229.5 116.5,229.5 Z"/></g>
<g><path style="opacity:0.218" fill="#ecfbed" d="M 321.5,228.5 C 321.187,232.042 321.521,235.375 322.5,238.5C 324.167,238.5 325.833,238.5 327.5,238.5C 327.334,245.175 327.5,251.842 328,258.5C 329.033,261.784 330.533,264.784 332.5,267.5C 328.59,265.214 326.256,261.714 325.5,257C 326.406,251.213 326.739,245.547 326.5,240C 323.087,239.028 319.753,238.862 316.5,239.5C 317.23,238.288 318.23,237.288 319.5,236.5C 318.873,235.583 318.539,234.583 318.5,233.5C 320.549,233.294 320.883,232.461 319.5,231C 320.066,230.005 320.733,229.172 321.5,228.5 Z"/></g>
<g><path style="opacity:0.031" fill="#edfbef" d="M 429.5,240.5 C 429.027,241.906 428.027,242.573 426.5,242.5C 426.973,241.094 427.973,240.427 429.5,240.5 Z"/></g>
<g><path style="opacity:0.384" fill="#bcf2c3" d="M 435.5,213.5 C 435.833,213.5 436.167,213.5 436.5,213.5C 436.5,232.167 436.5,250.833 436.5,269.5C 435.766,268.122 435.099,266.622 434.5,265C 435.177,247.647 435.51,230.48 435.5,213.5 Z"/></g>
<g><path style="opacity:0.008" fill="#e1fae4" d="M 215.5,238.5 C 215.445,241.614 214.112,243.948 211.5,245.5C 212.468,242.9 213.801,240.566 215.5,238.5 Z"/></g>
<g><path style="opacity:0.38" fill="#d8f8dc" d="M 299.5,238.5 C 304.483,241.454 309.816,243.954 315.5,246C 316.381,246.708 317.047,247.542 317.5,248.5C 312.075,245.856 306.408,243.689 300.5,242C 298.689,240.959 298.355,239.793 299.5,238.5 Z"/></g>
<g><path style="opacity:0.026" fill="#f1fcf2" d="M 423.5,242.5 C 424.5,242.5 425.5,242.5 426.5,242.5C 425.74,244.985 424.74,244.985 423.5,242.5 Z"/></g>
<g><path style="opacity:0.063" fill="#e1fae5" d="M 467.5,234.5 C 465.312,238.207 462.645,241.54 459.5,244.5C 461.208,240.428 463.874,237.095 467.5,234.5 Z"/></g>
<g><path style="opacity:0.587" fill="#d5f7da" d="M 231.5,239.5 C 230.972,240.847 230.805,242.181 231,243.5C 234.832,243.433 238.665,243.433 242.5,243.5C 243.292,242.3 243.292,240.967 242.5,239.5C 243.965,240.406 244.965,241.739 245.5,243.5C 239.833,244.833 234.167,244.833 228.5,243.5C 229.035,241.739 230.035,240.406 231.5,239.5 Z"/></g>
<g><path style="opacity:0.996" fill="#23e14f" d="M 307.5,228.5 C 311.815,228.832 315.481,230.499 318.5,233.5C 318.539,234.583 318.873,235.583 319.5,236.5C 318.23,237.288 317.23,238.288 316.5,239.5C 315.07,239.421 313.736,239.754 312.5,240.5C 309.863,238.348 306.863,237.015 303.5,236.5C 301.645,236.34 300.312,237.007 299.5,238.5C 298.355,239.793 298.689,240.959 300.5,242C 306.408,243.689 312.075,245.856 317.5,248.5C 317.738,250.404 318.738,251.738 320.5,252.5C 320.577,256.215 320.244,259.881 319.5,263.5C 319.5,264.167 319.167,264.5 318.5,264.5C 317.5,264.833 316.833,265.5 316.5,266.5C 316.5,267.167 316.167,267.5 315.5,267.5C 309.654,269.233 303.654,269.9 297.5,269.5C 296.038,270.471 294.705,270.138 293.5,268.5C 291.533,266.696 289.699,264.696 288,262.5C 287.421,261.072 287.588,259.738 288.5,258.5C 290.677,258.414 292.677,257.747 294.5,256.5C 298.441,260.991 303.108,262.157 308.5,260C 309.833,258.333 309.833,256.667 308.5,255C 304.284,253.316 299.951,252.149 295.5,251.5C 294.24,249.633 292.573,248.3 290.5,247.5C 289.257,245.003 288.59,242.336 288.5,239.5C 288.361,237.117 289.028,235.117 290.5,233.5C 295.167,228.93 300.834,227.263 307.5,228.5 Z"/></g>
<g><path style="opacity:0.224" fill="#e7fae9" d="M 363.5,241.5 C 363.34,243.153 362.674,244.486 361.5,245.5C 361.229,243.62 361.896,242.287 363.5,241.5 Z"/></g>
<g><path style="opacity:0.996" fill="#1fe04e" d="M 447.5,243.5 C 451.288,238.54 455.288,233.707 459.5,229C 463.211,228.175 466.878,228.341 470.5,229.5C 469.37,230.622 468.703,231.956 468.5,233.5C 468.5,234.167 468.167,234.5 467.5,234.5C 463.874,237.095 461.208,240.428 459.5,244.5C 457.015,245.26 457.015,246.26 459.5,247.5C 459.427,249.027 460.094,250.027 461.5,250.5C 461.738,252.404 462.738,253.738 464.5,254.5C 464.427,256.027 465.094,257.027 466.5,257.5C 466.738,259.404 467.738,260.738 469.5,261.5C 469.427,263.027 470.094,264.027 471.5,264.5C 471.557,265.609 471.89,266.609 472.5,267.5C 468.702,268.483 464.702,268.817 460.5,268.5C 459.66,266.147 458.326,264.147 456.5,262.5C 455.567,259.63 453.9,257.296 451.5,255.5C 451.631,254.624 451.298,253.957 450.5,253.5C 448.812,254.521 447.479,255.855 446.5,257.5C 445.518,260.962 445.185,264.629 445.5,268.5C 442.833,268.5 440.167,268.5 437.5,268.5C 437.5,250.5 437.5,232.5 437.5,214.5C 440.167,214.5 442.833,214.5 445.5,214.5C 445.168,224.522 445.501,234.522 446.5,244.5C 447.107,244.376 447.44,244.043 447.5,243.5 Z"/></g>
<g><path style="opacity:0.039" fill="#e1fae4" d="M 459.5,244.5 C 459.5,245.5 459.5,246.5 459.5,247.5C 457.015,246.26 457.015,245.26 459.5,244.5 Z"/></g>
<g><path style="opacity:0.961" fill="#90ee94" d="M 75.5,238.5 C 71.5,243.167 67.1667,247.5 62.5,251.5C 62.5858,250.504 62.2524,249.671 61.5,249C 62.448,248.517 63.448,248.351 64.5,248.5C 64.5,247.5 64.5,246.5 64.5,245.5C 65.552,245.649 66.552,245.483 67.5,245C 67.1667,244.667 66.8333,244.333 66.5,244C 67.7158,242.26 69.3825,241.26 71.5,241C 70.1667,240.333 70.1667,239.667 71.5,239C 72.7932,238.51 74.1266,238.343 75.5,238.5 Z"/></g>
<g><path style="opacity:0.38" fill="#def9e1" d="M 347.5,270.5 C 347.5,270.167 347.5,269.833 347.5,269.5C 348.477,266.713 348.81,263.713 348.5,260.5C 344.993,261.006 341.826,260.34 339,258.5C 338.5,251.842 338.334,245.175 338.5,238.5C 341.833,238.5 345.167,238.5 348.5,238.5C 348.5,235.167 348.5,231.833 348.5,228.5C 345.167,228.5 341.833,228.5 338.5,228.5C 338.5,224.833 338.5,221.167 338.5,217.5C 334.833,217.5 331.167,217.5 327.5,217.5C 327.5,221.167 327.5,224.833 327.5,228.5C 325.5,228.5 323.5,228.5 321.5,228.5C 322.919,227.549 324.585,227.216 326.5,227.5C 326.5,223.833 326.5,220.167 326.5,216.5C 330.833,216.5 335.167,216.5 339.5,216.5C 339.5,220.167 339.5,223.833 339.5,227.5C 342.833,227.5 346.167,227.5 349.5,227.5C 349.5,231.5 349.5,235.5 349.5,239.5C 346.326,239.998 342.993,239.998 339.5,239.5C 339.334,245.176 339.501,250.843 340,256.5C 340.374,257.416 340.874,258.25 341.5,259C 344.131,259.107 346.631,259.273 349,259.5C 349.167,261.333 349.333,263.167 349.5,265C 349.453,267.295 348.787,269.129 347.5,270.5 Z"/></g>
<g><path style="opacity:0.604" fill="#c7f6cd" d="M 386.5,234.5 C 390.497,238.002 392.497,242.502 392.5,248C 392.093,251.805 391.093,255.305 389.5,258.5C 391.645,249.988 390.645,241.988 386.5,234.5 Z"/></g>
<g><path style="opacity:0.602" fill="#b7f3bd" d="M 219.5,238.5 C 218.274,244.521 218.274,250.521 219.5,256.5C 219.5,257.5 219.5,258.5 219.5,259.5C 215.508,252.48 215.508,245.48 219.5,238.5 Z"/></g>
<g><path style="opacity:0.829" fill="#9befa8" d="M 271.5,228.5 C 271.232,230.099 271.566,231.432 272.5,232.5C 272.44,233.043 272.107,233.376 271.5,233.5C 270.571,232.311 270.238,230.978 270.5,229.5C 267.5,229.5 264.5,229.5 261.5,229.5C 261.5,242.5 261.5,255.5 261.5,268.5C 260.504,255.344 260.171,242.01 260.5,228.5C 264.167,227.167 267.833,227.167 271.5,228.5 Z"/></g>
<g><path style="opacity:0.039" fill="#ffdddc" d="M 134.5,244.5 C 132.57,248.1 129.903,251.1 126.5,253.5C 128.43,249.9 131.097,246.9 134.5,244.5 Z"/></g>
<g><path style="opacity:0.29" fill="#d6f8db" d="M 207.5,248.5 C 206.22,249.931 204.553,250.598 202.5,250.5C 202.5,250.167 202.5,249.833 202.5,249.5C 204.117,248.962 205.784,248.629 207.5,248.5 Z"/></g>
<g><path style="opacity:0.004" fill="#fefffe" d="M 290.5,248.5 C 289.833,249.167 289.833,249.167 290.5,248.5 Z"/></g>
<g><path style="opacity:0.333" fill="#e1f9e5" d="M 350.5,243.5 C 350.5,247.167 350.5,250.833 350.5,254.5C 349.776,252.782 349.109,250.948 348.5,249C 349.109,247.052 349.776,245.218 350.5,243.5 Z"/></g>
<g><path style="opacity:0.089" fill="#f6fcf6" d="M 274.5,241.5 C 274.291,242.922 273.791,244.255 273,245.5C 272.829,253.677 272.329,261.677 271.5,269.5C 271.5,262.167 271.5,254.833 271.5,247.5C 271.461,244.911 272.461,242.911 274.5,241.5 Z"/></g>
<g><path style="opacity:0.012" fill="#e3fae4" d="M 290.5,248.5 C 290.5,248.167 290.5,247.833 290.5,247.5C 292.573,248.3 294.24,249.633 295.5,251.5C 293.336,251.279 291.67,250.279 290.5,248.5 Z"/></g>
<g><path style="opacity:0.537" fill="#bff5c6" d="M 396.5,238.5 C 394.896,245.962 395.229,253.295 397.5,260.5C 396.442,259.4 395.608,258.066 395,256.5C 394.685,253.628 394.185,250.795 393.5,248C 393.923,244.522 394.923,241.356 396.5,238.5 Z"/></g>
<g><path style="opacity:0.42" fill="#d8f8dd" d="M 459.5,247.5 C 460.906,247.973 461.573,248.973 461.5,250.5C 460.094,250.027 459.427,249.027 459.5,247.5 Z"/></g>
<g><path style="opacity:0.188" fill="#d7f7dd" d="M 90.5,250.5 C 92.1667,250.5 93.8333,250.5 95.5,250.5C 94.469,251.249 93.3024,251.915 92,252.5C 91.2828,251.956 90.7828,251.289 90.5,250.5 Z"/></g>
<g><path style="opacity:0.714" fill="#baf4c1" d="M 202.5,250.5 C 201.122,251.234 199.622,251.901 198,252.5C 194.651,252.254 191.151,252.254 187.5,252.5C 187.5,258.5 187.5,264.5 187.5,270.5C 183.629,270.815 179.962,270.482 176.5,269.5C 180.042,269.813 183.375,269.479 186.5,268.5C 186.5,262.5 186.5,256.5 186.5,250.5C 191.833,250.5 197.167,250.5 202.5,250.5 Z"/></g>
<g><path style="opacity:0.659" fill="#c7f6ce" d="M 317.5,248.5 C 319.262,249.262 320.262,250.596 320.5,252.5C 318.738,251.738 317.738,250.404 317.5,248.5 Z"/></g>
<g><path style="opacity:0.996" fill="#24e14f" d="M 366.5,227.5 C 372.64,227.119 378.307,228.453 383.5,231.5C 384.167,232.833 385.167,233.833 386.5,234.5C 390.645,241.988 391.645,249.988 389.5,258.5C 388.094,258.973 387.427,259.973 387.5,261.5C 386.833,261.833 386.167,262.167 385.5,262.5C 385.565,262.062 385.399,261.728 385,261.5C 384.751,262.624 384.251,263.624 383.5,264.5C 382.928,262.922 382.594,261.422 382.5,260C 383.308,259.692 383.975,259.192 384.5,258.5C 383.167,257.833 381.833,257.167 380.5,256.5C 382.962,252.748 382.962,249.082 380.5,245.5C 380.155,242.802 378.822,240.802 376.5,239.5C 375.508,239.672 374.842,239.338 374.5,238.5C 374.5,237.833 374.167,237.5 373.5,237.5C 370.397,236.958 367.564,235.624 365,233.5C 363.667,234.167 362.333,234.833 361,235.5C 358.823,234.713 356.989,234.713 355.5,235.5C 358.316,231.599 361.983,228.932 366.5,227.5 Z"/></g>
<g><path style="opacity:0.243" fill="#d1f7d7" d="M 176.5,214.5 C 176.5,232.833 176.5,251.167 176.5,269.5C 175.766,268.122 175.099,266.622 174.5,265C 174.757,251.538 174.757,238.205 174.5,225C 175.135,221.397 175.802,217.897 176.5,214.5 Z"/></g>
<g><path style="opacity:0.384" fill="#c9f5cf" d="M 250.5,232.5 C 256.588,238.096 258.921,245.096 257.5,253.5C 249.838,253.943 242.338,253.943 235,253.5C 233.014,253.569 231.514,254.235 230.5,255.5C 229.522,255.189 228.855,254.522 228.5,253.5C 237.81,252.502 247.143,252.168 256.5,252.5C 256.81,249.287 256.477,246.287 255.5,243.5C 254.628,239.426 252.961,235.759 250.5,232.5 Z"/></g>
<g><path style="opacity:0.486" fill="#dbf8de" d="M 461.5,250.5 C 463.262,251.262 464.262,252.596 464.5,254.5C 462.738,253.738 461.738,252.404 461.5,250.5 Z"/></g>
<g><path style="opacity:0.054" fill="#f9fdf9" d="M 260.5,228.5 C 260.171,242.01 260.504,255.344 261.5,268.5C 264.625,269.479 267.958,269.813 271.5,269.5C 267.767,270.821 263.934,270.821 260,269.5C 259.173,255.66 259.339,241.994 260.5,228.5 Z"/></g>
<g><path style="opacity:0.141" fill="#dff9e2" d="M 376.5,239.5 C 378.822,240.802 380.155,242.802 380.5,245.5C 380.664,248.187 380.497,250.854 380,253.5C 379.722,254.416 379.222,255.082 378.5,255.5C 379.412,251.869 379.579,248.203 379,244.5C 377.081,242.919 376.248,241.252 376.5,239.5 Z"/></g>
<g><path style="opacity:0.141" fill="#d7f8db" d="M 407.5,242.5 C 405.031,249.362 406.698,254.862 412.5,259C 414.473,259.495 416.473,259.662 418.5,259.5C 414.689,261.118 411.189,260.451 408,257.5C 405.626,253.106 404.959,248.44 406,243.5C 406.383,242.944 406.883,242.611 407.5,242.5 Z"/></g>
<g><path style="opacity:0.98" fill="#64747f" d="M 35.5,186.5 C 34.2073,188.296 32.7073,189.963 31,191.5C 30.2754,193.949 29.2754,196.283 28,198.5C 27.5,231.165 27.3334,263.832 27.5,296.5C 26.5655,295.432 26.2322,294.099 26.5,292.5C 26.5,261.833 26.5,231.167 26.5,200.5C 27.015,194.115 30.015,189.448 35.5,186.5 Z"/></g>
<g><path style="opacity:0.826" fill="#84ec96" d="M 271.5,247.5 C 271.5,254.833 271.5,262.167 271.5,269.5C 267.958,269.813 264.625,269.479 261.5,268.5C 264.5,268.5 267.5,268.5 270.5,268.5C 270.175,261.313 270.509,254.313 271.5,247.5 Z"/></g>
<g><path style="opacity:0.961" fill="#93ef96" d="M 61.5,252.5 C 58.5,256.167 55.1667,259.5 51.5,262.5C 50.3813,259.256 51.7146,257.589 55.5,257.5C 55.5,256.5 55.5,255.5 55.5,254.5C 56.5,254.5 57.5,254.5 58.5,254.5C 58.4017,251.752 59.4017,251.086 61.5,252.5 Z"/></g>
<g><path style="opacity:0.357" fill="#d4f8d8" d="M 295.5,251.5 C 299.951,252.149 304.284,253.316 308.5,255C 309.833,256.667 309.833,258.333 308.5,260C 303.108,262.157 298.441,260.991 294.5,256.5C 292.677,257.747 290.677,258.414 288.5,258.5C 290.164,257.001 292.164,256.001 294.5,255.5C 296.606,256.43 298.606,257.596 300.5,259C 302.833,259.667 305.167,259.667 307.5,259C 308.784,257.703 308.617,256.536 307,255.5C 306.667,255.833 306.333,256.167 306,256.5C 302.578,254.534 299.078,252.867 295.5,251.5 Z"/></g>
<g><path style="opacity:0.275" fill="#daf9df" d="M 320.5,252.5 C 321.158,253.793 321.492,255.293 321.5,257C 321.664,259.544 320.997,261.71 319.5,263.5C 320.244,259.881 320.577,256.215 320.5,252.5 Z"/></g>
<g><path style="opacity:0.651" fill="#ffb0ad" d="M 128.5,238.5 C 121.535,247.133 113.868,255.133 105.5,262.5C 110.768,256.058 116.268,249.725 122,243.5C 123.777,241.21 125.944,239.543 128.5,238.5 Z"/></g>
<g><path style="opacity:0.427" fill="#effbef" d="M 230.5,255.5 C 231.906,255.973 232.573,256.973 232.5,258.5C 231.094,258.027 230.427,257.027 230.5,255.5 Z"/></g>
<g><path style="opacity:0.486" fill="#d6f8da" d="M 253.5,263.5 C 253.804,262.85 254.137,262.183 254.5,261.5C 252.258,259.461 249.758,257.795 247,256.5C 245.871,258.141 244.371,259.141 242.5,259.5C 243.854,256.302 246.187,255.136 249.5,256C 252.002,257.337 254.002,259.171 255.5,261.5C 255.253,262.713 254.586,263.38 253.5,263.5 Z"/></g>
<g><path style="opacity:0.357" fill="#dff9e3" d="M 464.5,254.5 C 465.906,254.973 466.573,255.973 466.5,257.5C 465.094,257.027 464.427,256.027 464.5,254.5 Z"/></g>
<g><path style="opacity:0.008" fill="#ffd1d1" d="M 78.5,257.5 C 83.8333,260.833 88.1667,265.167 91.5,270.5C 86.8333,266.5 82.5,262.167 78.5,257.5 Z"/></g>
<g><path style="opacity:0.996" fill="#2be152" d="M 373.5,237.5 C 370.167,237.5 366.833,237.5 363.5,237.5C 363.5,238.833 363.5,240.167 363.5,241.5C 361.896,242.287 361.229,243.62 361.5,245.5C 360.366,247.966 360.199,250.633 361,253.5C 361.377,254.942 362.21,255.942 363.5,256.5C 364.803,259.441 367.136,260.774 370.5,260.5C 374.547,260.82 377.214,259.153 378.5,255.5C 379.222,255.082 379.722,254.416 380,253.5C 380.497,250.854 380.664,248.187 380.5,245.5C 382.962,249.082 382.962,252.748 380.5,256.5C 381.833,257.167 383.167,257.833 384.5,258.5C 383.975,259.192 383.308,259.692 382.5,260C 382.594,261.422 382.928,262.922 383.5,264.5C 384.251,263.624 384.751,262.624 385,261.5C 385.399,261.728 385.565,262.062 385.5,262.5C 385.5,263.167 385.5,263.833 385.5,264.5C 385.5,265.167 385.167,265.5 384.5,265.5C 382.973,265.427 381.973,266.094 381.5,267.5C 379.033,267.755 377.033,268.755 375.5,270.5C 374.833,270.5 374.167,270.5 373.5,270.5C 369.342,270.668 365.342,270.002 361.5,268.5C 359.596,268.262 358.262,267.262 357.5,265.5C 357.167,264.5 356.5,263.833 355.5,263.5C 355.167,262.5 354.5,261.833 353.5,261.5C 353.065,258.843 352.065,256.509 350.5,254.5C 350.5,250.833 350.5,247.167 350.5,243.5C 350.263,242.209 350.596,241.209 351.5,240.5C 352.593,238.651 353.926,236.984 355.5,235.5C 356.989,234.713 358.823,234.713 361,235.5C 362.333,234.833 363.667,234.167 365,233.5C 367.564,235.624 370.397,236.958 373.5,237.5 Z"/></g>
<g><path style="opacity:0.243" fill="#c8f6d0" d="M 361.5,245.5 C 361.242,249.367 361.908,253.034 363.5,256.5C 362.21,255.942 361.377,254.942 361,253.5C 360.199,250.633 360.366,247.966 361.5,245.5 Z"/></g>
<g><path style="opacity:0.718" fill="#baf4c0" d="M 423.5,255.5 C 423.033,258.297 421.367,259.631 418.5,259.5C 420.142,258.197 421.809,256.864 423.5,255.5 Z"/></g>
<g><path style="opacity:0.302" fill="#def9e1" d="M 451.5,255.5 C 453.9,257.296 455.567,259.63 456.5,262.5C 453.677,261.008 452.01,258.674 451.5,255.5 Z"/></g>
<g><path style="opacity:0.847" fill="#b2f3b7" d="M 219.5,260.5 C 219.5,260.167 219.5,259.833 219.5,259.5C 221.048,259.821 221.715,260.821 221.5,262.5C 220.833,261.833 220.167,261.167 219.5,260.5 Z"/></g>
<g><path style="opacity:0.008" fill="#eafbec" d="M 350.5,254.5 C 352.065,256.509 353.065,258.843 353.5,261.5C 351.166,259.824 350.166,257.491 350.5,254.5 Z"/></g>
<g><path style="opacity:0.311" fill="#d5f7d9" d="M 378.5,255.5 C 377.214,259.153 374.547,260.82 370.5,260.5C 367.136,260.774 364.803,259.441 363.5,256.5C 368.779,260.677 373.779,260.344 378.5,255.5 Z"/></g>
<g><path style="opacity:0.486" fill="#def9e1" d="M 466.5,257.5 C 468.262,258.262 469.262,259.596 469.5,261.5C 467.738,260.738 466.738,259.404 466.5,257.5 Z"/></g>
<g><path style="opacity:0.78" fill="#b7f4bd" d="M 43.5,256.5 C 40.9174,262.121 42.584,264.788 48.5,264.5C 44.5934,267.062 41.9267,265.895 40.5,261C 40.8985,259.019 41.8985,257.519 43.5,256.5 Z"/></g>
<g><path style="opacity:0.004" fill="#fefffe" d="M 219.5,260.5 C 218.833,261.167 218.833,261.167 219.5,260.5 Z"/></g>
<g><path style="opacity:0.259" fill="#d6f7da" d="M 389.5,258.5 C 389.573,260.027 388.906,261.027 387.5,261.5C 387.427,259.973 388.094,258.973 389.5,258.5 Z"/></g>
<g><path style="opacity:0.522" fill="#ffb2b0" d="M 73.5,258.5 C 68.4633,264.538 62.7966,269.871 56.5,274.5C 61.5104,268.49 67.177,263.157 73.5,258.5 Z"/></g>
<g><path style="opacity:0.004" fill="#e2fbe5" d="M 397.5,260.5 C 398.906,260.973 399.573,261.973 399.5,263.5C 398.094,263.027 397.427,262.027 397.5,260.5 Z"/></g>
<g><path style="opacity:0.29" fill="#dcf9e1" d="M 451.5,255.5 C 449.983,255.511 448.816,256.177 448,257.5C 447.501,261.821 447.334,266.154 447.5,270.5C 443.629,270.815 439.962,270.482 436.5,269.5C 439.833,269.5 443.167,269.5 446.5,269.5C 446.5,265.5 446.5,261.5 446.5,257.5C 447.479,255.855 448.812,254.521 450.5,253.5C 451.298,253.957 451.631,254.624 451.5,255.5 Z"/></g>
<g><path style="opacity:0.475" fill="#d7f8dc" d="M 288.5,258.5 C 287.588,259.738 287.421,261.072 288,262.5C 289.699,264.696 291.533,266.696 293.5,268.5C 289.905,266.905 287.238,264.238 285.5,260.5C 286.005,259.081 287.005,258.415 288.5,258.5 Z"/></g>
<g><path style="opacity:0.004" fill="#e5fae8" d="M 353.5,261.5 C 354.5,261.833 355.167,262.5 355.5,263.5C 354.167,263.5 353.5,262.833 353.5,261.5 Z"/></g>
<g><path style="opacity:0.039" fill="#dbf9dd" d="M 387.5,261.5 C 387.573,263.027 386.906,264.027 385.5,264.5C 385.5,263.833 385.5,263.167 385.5,262.5C 386.167,262.167 386.833,261.833 387.5,261.5 Z"/></g>
<g><path style="opacity:0.996" fill="#24e14f" d="M 255.5,243.5 C 256.477,246.287 256.81,249.287 256.5,252.5C 247.143,252.168 237.81,252.502 228.5,253.5C 228.855,254.522 229.522,255.189 230.5,255.5C 230.427,257.027 231.094,258.027 232.5,258.5C 235.469,262.104 238.802,262.438 242.5,259.5C 244.371,259.141 245.871,258.141 247,256.5C 249.758,257.795 252.258,259.461 254.5,261.5C 254.137,262.183 253.804,262.85 253.5,263.5C 252.5,263.833 251.833,264.5 251.5,265.5C 251.5,266.167 251.167,266.5 250.5,266.5C 248.181,266.992 246.181,267.992 244.5,269.5C 240.167,269.5 235.833,269.5 231.5,269.5C 231.167,269.5 230.833,269.5 230.5,269.5C 230.027,268.094 229.027,267.427 227.5,267.5C 226.738,265.738 225.404,264.738 223.5,264.5C 222.5,264.167 221.833,263.5 221.5,262.5C 221.715,260.821 221.048,259.821 219.5,259.5C 219.5,258.5 219.5,257.5 219.5,256.5C 220.306,255.003 220.972,253.336 221.5,251.5C 220.106,250.313 220.273,249.646 222,249.5C 223.533,250.695 225.033,250.695 226.5,249.5C 227.308,249.808 227.975,250.308 228.5,251C 237.494,251.5 246.494,251.666 255.5,251.5C 255.5,248.833 255.5,246.167 255.5,243.5 Z"/></g>
<g><path style="opacity:0.588" fill="#c5f5cc" d="M 232.5,258.5 C 235.888,259.87 239.221,260.203 242.5,259.5C 238.802,262.438 235.469,262.104 232.5,258.5 Z"/></g>
<g><path style="opacity:0.047" fill="#fcfdfb" d="M 399.5,263.5 C 400.5,263.833 401.167,264.5 401.5,265.5C 400.167,265.5 399.5,264.833 399.5,263.5 Z"/></g>
<g><path style="opacity:0.034" fill="#e8fbea" d="M 456.5,262.5 C 458.326,264.147 459.66,266.147 460.5,268.5C 457.956,267.292 456.622,265.292 456.5,262.5 Z"/></g>
<g><path style="opacity:0.357" fill="#dff9e3" d="M 469.5,261.5 C 470.906,261.973 471.573,262.973 471.5,264.5C 470.094,264.027 469.427,263.027 469.5,261.5 Z"/></g>
<g><path style="opacity:0.847" fill="#9ff0a9" d="M 223.5,264.5 C 225.404,264.738 226.738,265.738 227.5,267.5C 225.596,267.262 224.262,266.262 223.5,264.5 Z"/></g>
<g><path style="opacity:0.02" fill="#e7fbea" d="M 253.5,263.5 C 253.5,264.833 252.833,265.5 251.5,265.5C 251.833,264.5 252.5,263.833 253.5,263.5 Z"/></g>
<g><path style="opacity:0.008" fill="#dcf9df" d="M 355.5,263.5 C 356.5,263.833 357.167,264.5 357.5,265.5C 356.167,265.5 355.5,264.833 355.5,263.5 Z"/></g>
<g><path style="opacity:0.008" fill="#eafbec" d="M 318.5,264.5 C 318.5,265.833 317.833,266.5 316.5,266.5C 316.833,265.5 317.5,264.833 318.5,264.5 Z"/></g>
<g><path style="opacity:0.537" fill="#c3f5c9" d="M 401.5,265.5 C 403.027,265.427 404.027,266.094 404.5,267.5C 402.973,267.573 401.973,266.906 401.5,265.5 Z"/></g>
<g><path style="opacity:0.071" fill="#e0f9e3" d="M 424.5,268.5 C 427.651,266.181 430.318,263.347 432.5,260C 430.053,257.443 427.053,255.943 423.5,255.5C 423.843,253.775 424.843,253.275 426.5,254C 428.275,255.439 430.275,256.439 432.5,257C 433.574,257.739 434.241,258.739 434.5,260C 431.897,264.499 428.564,267.332 424.5,268.5 Z"/></g>
<g><path style="opacity:0.055" fill="#ebfbed" d="M 384.5,265.5 C 384.027,266.906 383.027,267.573 381.5,267.5C 381.973,266.094 382.973,265.427 384.5,265.5 Z"/></g>
<g><path style="opacity:0.243" fill="#cef7d4" d="M 250.5,266.5 C 249.089,268.539 247.089,269.539 244.5,269.5C 246.181,267.992 248.181,266.992 250.5,266.5 Z"/></g>
<g><path style="opacity:0.906" fill="#ff8885" d="M 105.5,262.5 C 103.234,266.436 100.234,269.769 96.5,272.5C 96.5,272.167 96.5,271.833 96.5,271.5C 99.1667,268.167 102.167,265.167 105.5,262.5 Z"/></g>
<g><path style="opacity:0.145" fill="#c4f5ca" d="M 227.5,267.5 C 229.027,267.427 230.027,268.094 230.5,269.5C 228.973,269.573 227.973,268.906 227.5,267.5 Z"/></g>
<g><path style="opacity:0.008" fill="#e4fae7" d="M 381.5,267.5 C 379.967,269.245 377.967,270.245 375.5,270.5C 377.033,268.755 379.033,267.755 381.5,267.5 Z"/></g>
<g><path style="opacity:0.831" fill="#76ea88" d="M 472.5,267.5 C 473.043,267.56 473.376,267.893 473.5,268.5C 469.555,269.491 465.555,269.824 461.5,269.5C 460.833,269.5 460.5,269.167 460.5,268.5C 464.702,268.817 468.702,268.483 472.5,267.5 Z"/></g>
<g><path style="opacity:0.635" fill="#acf2b5" d="M 231.5,269.5 C 235.833,269.5 240.167,269.5 244.5,269.5C 242.717,270.455 240.717,271.122 238.5,271.5C 236.59,270.452 234.756,270.452 233,271.5C 232.283,270.956 231.783,270.289 231.5,269.5 Z"/></g>
<g><path style="opacity:0.667" fill="#c7f6cd" d="M 315.5,267.5 C 313.496,269.19 311.163,270.524 308.5,271.5C 305.5,271.5 302.5,271.5 299.5,271.5C 298.478,271.145 297.811,270.478 297.5,269.5C 303.654,269.9 309.654,269.233 315.5,267.5 Z"/></g>
<g><path style="opacity:0.31" fill="#c1f5c6" d="M 332.5,267.5 C 337.241,269.317 342.241,269.984 347.5,269.5C 347.5,269.833 347.5,270.167 347.5,270.5C 343.162,271.672 338.829,271.505 334.5,270C 333.619,269.292 332.953,268.458 332.5,267.5 Z"/></g>
<g><path style="opacity:0.017" fill="#f9fefa" d="M 361.5,268.5 C 365.342,270.002 369.342,270.668 373.5,270.5C 371.034,271.634 368.367,271.801 365.5,271C 363.68,270.8 362.347,269.966 361.5,268.5 Z"/></g>
<g><path style="opacity:0.037" fill="#e7fae9" d="M 424.5,268.5 C 424.631,269.239 424.464,269.906 424,270.5C 422.374,270.146 420.541,270.146 418.5,270.5C 420.214,269.262 422.214,268.595 424.5,268.5 Z"/></g>
<g><path style="opacity:0.031" fill="#ecfbed" d="M 471.5,264.5 C 473.975,265.687 474.975,267.687 474.5,270.5C 469.968,270.818 465.634,270.485 461.5,269.5C 465.555,269.824 469.555,269.491 473.5,268.5C 473.376,267.893 473.043,267.56 472.5,267.5C 471.89,266.609 471.557,265.609 471.5,264.5 Z"/></g>
<g><path style="opacity:0.008" fill="#ffd4d3" d="M 78.5,269.5 C 79.8333,270.167 80.8333,271.167 81.5,272.5C 79.5,272.5 78.5,271.5 78.5,269.5 Z"/></g>
<g><path style="opacity:0.014" fill="#f2eeea" d="M 91.5,270.5 C 93.1172,271.038 94.7839,271.371 96.5,271.5C 96.5,271.833 96.5,272.167 96.5,272.5C 94.1658,273.841 92.4991,273.174 91.5,270.5 Z"/></g>
<g><path style="opacity:0.012" fill="#ffe2e1" d="M 68.5,275.5 C 68.8417,274.662 69.5084,274.328 70.5,274.5C 70.5912,276.698 69.9245,277.031 68.5,275.5 Z"/></g>
<g><path style="opacity:0.004" fill="#ffdedd" d="M 84.5,275.5 C 85.5,275.833 86.1667,276.5 86.5,277.5C 84.0065,277.869 83.3398,277.203 84.5,275.5 Z"/></g>
<g><path style="opacity:0.008" fill="#ffd7d6" d="M 86.5,277.5 C 87.8333,278.167 88.8333,279.167 89.5,280.5C 87.5,280.5 86.5,279.5 86.5,277.5 Z"/></g>
<g><path style="opacity:0.651" fill="#ffb6b3" d="M 56.5,274.5 C 52.9257,278.578 49.0923,282.578 45,286.5C 44.5099,288.545 44.6765,290.545 45.5,292.5C 43.9892,291.042 42.9892,289.209 42.5,287C 46.7856,282.204 51.4523,278.037 56.5,274.5 Z"/></g>
<g><path style="opacity:0.518" fill="#ffb0af" d="M 45.5,292.5 C 47.1667,292.5 48.8333,292.5 50.5,292.5C 48.9522,294.922 47.2855,294.922 45.5,292.5 Z"/></g>
<g><path style="opacity:0.165" fill="#abb4ba" d="M 144.5,290.5 C 144.833,290.5 145.167,290.5 145.5,290.5C 145.276,295.336 142.943,298.336 138.5,299.5C 141.723,297.408 143.723,294.408 144.5,290.5 Z"/></g>
<g><path style="opacity:0.471" fill="#c1c9ce" d="M 37.5,294.5 C 38.9063,294.973 39.573,295.973 39.5,297.5C 38.0937,297.027 37.427,296.027 37.5,294.5 Z"/></g>
<g><path style="opacity:0.341" fill="#8b9ba5" d="M 39.5,297.5 C 41.6064,298.783 43.9398,299.616 46.5,300C 77.1963,300.81 107.863,300.644 138.5,299.5C 138.082,300.222 137.416,300.722 136.5,301C 106.168,301.5 75.8352,301.667 45.5,301.5C 44.1667,301.167 42.8333,300.833 41.5,300.5C 40.8333,299.5 40.1667,298.5 39.5,297.5 Z"/></g>
<g><path style="opacity:0.008" fill="#c9d0d4" d="M 29.5,300.5 C 30.5,301.167 31.5,301.833 32.5,302.5C 33.5,303.833 34.5,305.167 35.5,306.5C 32.5,305.5 30.5,303.5 29.5,300.5 Z"/></g>
<g><path style="opacity:0.997" fill="#023b4f" d="M 41.5,300.5 C 42.8333,300.833 44.1667,301.167 45.5,301.5C 76.7059,302.829 108.039,302.829 139.5,301.5C 140.251,302.376 140.751,303.376 141,304.5C 142.373,304.596 143.873,304.43 145.5,304C 144.944,304.383 144.611,304.883 144.5,305.5C 143.5,305.5 142.5,305.5 141.5,305.5C 141.567,306.959 141.234,308.292 140.5,309.5C 107.498,309.667 74.4983,309.5 41.5,309C 39.3716,308.345 37.3716,307.511 35.5,306.5C 34.5,305.167 33.5,303.833 32.5,302.5C 32.4346,302.062 32.6012,301.728 33,301.5C 34.3513,303.019 35.8513,304.352 37.5,305.5C 38.3333,304.5 39.1667,303.5 40,302.5C 41.0495,303.517 42.2161,303.684 43.5,303C 42.244,302.583 41.5774,301.75 41.5,300.5 Z"/></g>
<g><path style="opacity:0.998" fill="#6a808b" d="M 144.5,305.5 C 145.5,305.5 146.5,305.5 147.5,305.5C 145.948,308.112 143.614,309.445 140.5,309.5C 141.234,308.292 141.567,306.959 141.5,305.5C 142.5,305.5 143.5,305.5 144.5,305.5 Z"/></g>
<g><path style="opacity:0.004" fill="#fefffe" d="M 148.5,305.5 C 149.833,306.167 149.833,306.167 148.5,305.5 Z"/></g>
<g><path style="opacity:0.718" fill="#98a2ac" d="M 35.5,306.5 C 37.3716,307.511 39.3716,308.345 41.5,309C 74.4983,309.5 107.498,309.667 140.5,309.5C 139.469,310.249 138.302,310.915 137,311.5C 107.373,311.649 77.5395,311.483 47.5,311C 44.086,310.703 40.7527,310.036 37.5,309C 36.6195,308.292 35.9528,307.458 35.5,306.5 Z"/></g>
</svg>
