<?xml version="1.0" encoding="UTF-8"?>
<!DOCTYPE svg PUBLIC "-//W3C//DTD SVG 1.1//EN" "http://www.w3.org/Graphics/SVG/1.1/DTD/svg11.dtd">
<svg xmlns="http://www.w3.org/2000/svg" version="1.1" width="500px" height="400px" style="shape-rendering:geometricPrecision; text-rendering:geometricPrecision; image-rendering:optimizeQuality; fill-rule:evenodd; clip-rule:evenodd" xmlns:xlink="http://www.w3.org/1999/xlink">
<g><path style="opacity:0.488" fill="#fcc577" d="M 298.5,91.5 C 298.831,119.338 298.498,147.005 297.5,174.5C 297.5,146.833 297.5,119.167 297.5,91.5C 289.167,91.5 280.833,91.5 272.5,91.5C 272.5,110.167 272.5,128.833 272.5,147.5C 271.503,129.007 271.17,110.341 271.5,91.5C 280.5,90.1667 289.5,90.1667 298.5,91.5 Z"/></g>
<g><path style="opacity:0.844" fill="#f9f8f6" d="M 271.5,91.5 C 271.17,110.341 271.503,129.007 272.5,147.5C 274.853,149.86 276.853,152.527 278.5,155.5C 276.393,156.468 274.059,156.802 271.5,156.5C 271.169,181.672 271.502,206.672 272.5,231.5C 277.844,231.334 283.177,231.501 288.5,232C 291.684,232.754 294.351,234.254 296.5,236.5C 296.783,237.289 297.283,237.956 298,238.5C 298.829,220.329 298.662,202.329 297.5,184.5C 295.143,184.663 292.81,184.497 290.5,184C 293.051,180.956 295.384,177.789 297.5,174.5C 298.498,147.005 298.831,119.338 298.5,91.5C 299.332,109.329 299.832,127.329 300,145.5C 300.546,148.379 301.379,151.046 302.5,153.5C 302.5,153.833 302.5,154.167 302.5,154.5C 302.334,161.508 302.5,168.508 303,175.5C 304.977,178.312 307.144,180.978 309.5,183.5C 307.257,184.474 304.924,184.808 302.5,184.5C 301.503,206.66 301.169,228.994 301.5,251.5C 300.611,248.771 298.777,246.771 296,245.5C 295.583,246.756 294.75,247.423 293.5,247.5C 295.75,242.359 294.416,238.526 289.5,236C 277.502,236.07 265.502,236.07 253.5,236C 244.523,234.059 235.523,232.559 226.5,231.5C 221.672,231.357 217.005,232.024 212.5,233.5C 212.539,232.244 212.039,231.244 211,230.5C 210.5,214.17 210.333,197.837 210.5,181.5C 220.416,181.181 230.25,181.514 240,182.5C 240.168,162.996 240.668,143.662 241.5,124.5C 250.235,123.821 259.068,123.154 268,122.5C 268.511,120.122 269.178,117.788 270,115.5C 270.171,107.323 270.671,99.3228 271.5,91.5 Z"/></g>
<g><path style="opacity:0.996" fill="#fe9703" d="M 297.5,174.5 C 295.384,177.789 293.051,180.956 290.5,184C 292.81,184.497 295.143,184.663 297.5,184.5C 297.83,202.008 297.497,219.341 296.5,236.5C 294.351,234.254 291.684,232.754 288.5,232C 283.177,231.501 277.844,231.334 272.5,231.5C 272.5,206.833 272.5,182.167 272.5,157.5C 274.924,157.808 277.257,157.474 279.5,156.5C 279.376,155.893 279.043,155.56 278.5,155.5C 276.853,152.527 274.853,149.86 272.5,147.5C 272.5,128.833 272.5,110.167 272.5,91.5C 280.833,91.5 289.167,91.5 297.5,91.5C 297.5,119.167 297.5,146.833 297.5,174.5 Z"/></g>
<g><path style="opacity:0.609" fill="#8ad4fb" d="M 241.5,124.5 C 250.5,124.5 259.5,124.5 268.5,124.5C 268.825,132.352 268.492,140.018 267.5,147.5C 267.5,140.167 267.5,132.833 267.5,125.5C 259.167,125.5 250.833,125.5 242.5,125.5C 242.5,149.5 242.5,173.5 242.5,197.5C 241.502,173.339 241.169,149.006 241.5,124.5 Z"/></g>
<g><path style="opacity:0.996" fill="#27b0fa" d="M 267.5,147.5 C 265.5,150.167 263.5,152.833 261.5,155.5C 260.957,155.56 260.624,155.893 260.5,156.5C 262.743,157.474 265.076,157.808 267.5,157.5C 267.5,182.167 267.5,206.833 267.5,231.5C 261.155,231.347 254.822,231.014 248.5,230.5C 246.435,230.483 244.435,230.15 242.5,229.5C 242.5,222.167 242.5,214.833 242.5,207.5C 244.924,207.808 247.257,207.474 249.5,206.5C 249.376,205.893 249.043,205.56 248.5,205.5C 246.885,202.55 244.885,199.884 242.5,197.5C 242.5,173.5 242.5,149.5 242.5,125.5C 250.833,125.5 259.167,125.5 267.5,125.5C 267.5,132.833 267.5,140.167 267.5,147.5 Z"/></g>
<g><path style="opacity:0.996" fill="#c10805" d="M 302.5,154.5 C 311.167,154.5 319.833,154.5 328.5,154.5C 328.833,180.175 328.5,205.842 327.5,231.5C 325.833,232.333 324.167,233.167 322.5,234C 316.938,239.73 311.271,245.23 305.5,250.5C 305.167,250.5 304.833,250.5 304.5,250.5C 302.511,228.859 301.844,206.859 302.5,184.5C 304.924,184.808 307.257,184.474 309.5,183.5C 307.144,180.978 304.977,178.312 303,175.5C 302.5,168.508 302.334,161.508 302.5,154.5 Z"/></g>
<g><path style="opacity:0.992" fill="#fed7a0" d="M 278.5,155.5 C 279.043,155.56 279.376,155.893 279.5,156.5C 277.257,157.474 274.924,157.808 272.5,157.5C 272.5,182.167 272.5,206.833 272.5,231.5C 271.502,206.672 271.169,181.672 271.5,156.5C 274.059,156.802 276.393,156.468 278.5,155.5 Z"/></g>
<g><path style="opacity:0.995" fill="#92d6fc" d="M 261.5,155.5 C 263.607,156.468 265.941,156.802 268.5,156.5C 268.5,181.833 268.5,207.167 268.5,232.5C 261.595,232.793 254.928,232.126 248.5,230.5C 254.822,231.014 261.155,231.347 267.5,231.5C 267.5,206.833 267.5,182.167 267.5,157.5C 265.076,157.808 262.743,157.474 260.5,156.5C 260.624,155.893 260.957,155.56 261.5,155.5 Z"/></g>
<g><path style="opacity:0.996" fill="#80ce04" d="M 237.5,197.5 C 235.5,200.167 233.5,202.833 231.5,205.5C 230.957,205.56 230.624,205.893 230.5,206.5C 232.743,207.474 235.076,207.808 237.5,207.5C 237.5,214.5 237.5,221.5 237.5,228.5C 230.174,227.21 222.841,227.21 215.5,228.5C 214.5,228.5 213.5,228.5 212.5,228.5C 212.5,213.5 212.5,198.5 212.5,183.5C 220.833,183.5 229.167,183.5 237.5,183.5C 237.5,188.167 237.5,192.833 237.5,197.5 Z"/></g>
<g><path style="opacity:0.679" fill="#aade59" d="M 237.5,197.5 C 237.5,192.833 237.5,188.167 237.5,183.5C 229.167,183.5 220.833,183.5 212.5,183.5C 212.5,198.5 212.5,213.5 212.5,228.5C 213.5,228.5 214.5,228.5 215.5,228.5C 214.432,229.434 213.099,229.768 211.5,229.5C 211.5,213.833 211.5,198.167 211.5,182.5C 220.5,182.5 229.5,182.5 238.5,182.5C 238.821,187.695 238.487,192.695 237.5,197.5 Z"/></g>
<g><path style="opacity:0.996" fill="#eab3b4" d="M 302.5,184.5 C 301.844,206.859 302.511,228.859 304.5,250.5C 304.5,250.833 304.5,251.167 304.5,251.5C 303.5,251.5 302.5,251.5 301.5,251.5C 301.169,228.994 301.503,206.66 302.5,184.5 Z"/></g>
<g><path style="opacity:0.996" fill="#fec578" d="M 297.5,184.5 C 298.662,202.329 298.829,220.329 298,238.5C 297.283,237.956 296.783,237.289 296.5,236.5C 297.497,219.341 297.83,202.008 297.5,184.5 Z"/></g>
<g><path style="opacity:0.992" fill="#c7e88f" d="M 231.5,205.5 C 233.607,206.468 235.941,206.802 238.5,206.5C 238.825,214.019 238.492,221.352 237.5,228.5C 237.5,221.5 237.5,214.5 237.5,207.5C 235.076,207.808 232.743,207.474 230.5,206.5C 230.624,205.893 230.957,205.56 231.5,205.5 Z"/></g>
<g><path style="opacity:0.992" fill="#a5ddfa" d="M 248.5,205.5 C 249.043,205.56 249.376,205.893 249.5,206.5C 247.257,207.474 244.924,207.808 242.5,207.5C 242.5,214.833 242.5,222.167 242.5,229.5C 241.508,222.018 241.175,214.352 241.5,206.5C 244.059,206.802 246.393,206.468 248.5,205.5 Z"/></g>
<g><path style="opacity:0.49" fill="#f3e5e4" d="M 302.5,154.5 C 302.5,154.167 302.5,153.833 302.5,153.5C 311.5,153.5 320.5,153.5 329.5,153.5C 329.333,179.169 329.5,204.835 330,230.5C 331.992,231.328 333.492,232.661 334.5,234.5C 332.265,234.205 330.265,234.539 328.5,235.5C 322.425,238.739 317.425,243.239 313.5,249C 310.941,250.777 308.274,252.277 305.5,253.5C 305.167,252.833 304.833,252.167 304.5,251.5C 304.5,251.167 304.5,250.833 304.5,250.5C 304.833,250.5 305.167,250.5 305.5,250.5C 311.271,245.23 316.938,239.73 322.5,234C 324.167,233.167 325.833,232.333 327.5,231.5C 328.5,205.842 328.833,180.175 328.5,154.5C 319.833,154.5 311.167,154.5 302.5,154.5 Z"/></g>
<g><path style="opacity:0.996" fill="#1f3249" d="M 293.5,247.5 C 293.19,249.144 292.19,250.144 290.5,250.5C 287.772,250.171 285.438,250.837 283.5,252.5C 276.066,252.846 268.733,253.846 261.5,255.5C 260.448,255.351 259.448,255.517 258.5,256C 266.36,262.738 275.027,264.238 284.5,260.5C 286.905,259.232 289.572,258.565 292.5,258.5C 297.464,258.184 301.797,256.517 305.5,253.5C 308.274,252.277 310.941,250.777 313.5,249C 317.425,243.239 322.425,238.739 328.5,235.5C 336.226,234.937 338.559,238.27 335.5,245.5C 332.877,249.791 329.544,253.457 325.5,256.5C 323.738,257.262 322.738,258.596 322.5,260.5C 318.331,266.342 312.998,270.675 306.5,273.5C 303.784,273.386 301.784,274.386 300.5,276.5C 300.167,276.5 299.833,276.5 299.5,276.5C 297.62,276.229 296.287,276.896 295.5,278.5C 294.292,279.234 292.959,279.567 291.5,279.5C 288.423,279.179 286.09,280.179 284.5,282.5C 283.833,282.5 283.167,282.5 282.5,282.5C 277.736,282.769 273.403,284.102 269.5,286.5C 266.257,287.58 262.924,287.747 259.5,287C 250.814,284.564 242.147,282.731 233.5,281.5C 228.684,280.35 223.684,280.184 218.5,281C 216.934,281.608 215.6,282.442 214.5,283.5C 213.564,284.974 212.23,285.974 210.5,286.5C 209.957,286.56 209.624,286.893 209.5,287.5C 210.95,288.85 211.617,290.516 211.5,292.5C 207.845,297.486 203.845,302.153 199.5,306.5C 197.801,306.66 196.134,306.494 194.5,306C 193.211,304.198 191.544,303.031 189.5,302.5C 187.761,299.757 185.427,297.757 182.5,296.5C 181.089,294.086 179.089,292.419 176.5,291.5C 175.089,289.086 173.089,287.419 170.5,286.5C 169.738,284.738 168.404,283.738 166.5,283.5C 165.741,281.564 164.741,279.731 163.5,278C 164.741,276.269 165.741,274.436 166.5,272.5C 170.332,269.501 173.665,266.001 176.5,262C 178.756,262.615 181.089,262.948 183.5,263C 188.122,258.224 192.122,253.058 195.5,247.5C 197.587,246.415 198.92,244.749 199.5,242.5C 201.749,241.92 203.415,240.587 204.5,238.5C 206.629,236.05 209.296,234.383 212.5,233.5C 217.005,232.024 221.672,231.357 226.5,231.5C 235.523,232.559 244.523,234.059 253.5,236C 265.502,236.07 277.502,236.07 289.5,236C 294.416,238.526 295.75,242.359 293.5,247.5 Z M 301.5,251.5 C 302.5,251.5 303.5,251.5 304.5,251.5C 304.833,252.167 305.167,252.833 305.5,253.5C 300.989,254.931 296.655,256.598 292.5,258.5C 289.572,258.565 286.905,259.232 284.5,260.5C 276.703,262.611 269.37,261.611 262.5,257.5C 261.702,257.043 261.369,256.376 261.5,255.5C 268.733,253.846 276.066,252.846 283.5,252.5C 286.152,252.59 288.485,251.924 290.5,250.5C 292.19,250.144 293.19,249.144 293.5,247.5C 294.75,247.423 295.583,246.756 296,245.5C 298.777,246.771 300.611,248.771 301.5,251.5 Z"/></g>
<g><path style="opacity:0.871" fill="#97a0a9" d="M 328.5,235.5 C 330.265,234.539 332.265,234.205 334.5,234.5C 336.714,235.392 337.714,237.058 337.5,239.5C 337.401,241.799 336.734,243.799 335.5,245.5C 338.559,238.27 336.226,234.937 328.5,235.5 Z"/></g>
<g><path style="opacity:0.4" fill="#9ea5af" d="M 204.5,238.5 C 203.415,240.587 201.749,241.92 199.5,242.5C 200.585,240.413 202.251,239.08 204.5,238.5 Z"/></g>
<g><path style="opacity:0.302" fill="#adb4bc" d="M 199.5,242.5 C 198.92,244.749 197.587,246.415 195.5,247.5C 196.08,245.251 197.413,243.585 199.5,242.5 Z"/></g>
<g><path style="opacity:0.125" fill="#8a939f" d="M 290.5,250.5 C 288.485,251.924 286.152,252.59 283.5,252.5C 285.438,250.837 287.772,250.171 290.5,250.5 Z"/></g>
<g><path style="opacity:0.592" fill="#87909c" d="M 305.5,253.5 C 301.797,256.517 297.464,258.184 292.5,258.5C 296.655,256.598 300.989,254.931 305.5,253.5 Z"/></g>
<g><path style="opacity:0.235" fill="#b1b7be" d="M 261.5,255.5 C 261.369,256.376 261.702,257.043 262.5,257.5C 269.37,261.611 276.703,262.611 284.5,260.5C 275.027,264.238 266.36,262.738 258.5,256C 259.448,255.517 260.448,255.351 261.5,255.5 Z"/></g>
<g><path style="opacity:0.004" fill="#d6dade" d="M 325.5,256.5 C 325.262,258.404 324.262,259.738 322.5,260.5C 322.738,258.596 323.738,257.262 325.5,256.5 Z"/></g>
<g><path style="opacity:0.565" fill="#959da8" d="M 195.5,247.5 C 192.122,253.058 188.122,258.224 183.5,263C 181.089,262.948 178.756,262.615 176.5,262C 173.665,266.001 170.332,269.501 166.5,272.5C 169.262,268.561 172.262,264.728 175.5,261C 177.92,260.313 180.087,260.813 182,262.5C 186.366,257.305 190.866,252.305 195.5,247.5 Z"/></g>
<g><path style="opacity:0.993" fill="#ecedee" d="M 175.5,268.5 C 180.667,267.492 182.334,269.325 180.5,274C 178.866,274.494 177.199,274.66 175.5,274.5C 175.5,272.5 175.5,270.5 175.5,268.5 Z"/></g>
<g><path style="opacity:0.427" fill="#8f97a2" d="M 306.5,273.5 C 304.819,275.008 302.819,276.008 300.5,276.5C 301.784,274.386 303.784,273.386 306.5,273.5 Z"/></g>
<g><path style="opacity:0.004" fill="#bcc2c8" d="M 299.5,276.5 C 298.486,277.674 297.153,278.34 295.5,278.5C 296.287,276.896 297.62,276.229 299.5,276.5 Z"/></g>
<g><path style="opacity:0.667" fill="#677382" d="M 166.5,272.5 C 165.741,274.436 164.741,276.269 163.5,278C 164.741,279.731 165.741,281.564 166.5,283.5C 159.833,279.833 159.833,276.167 166.5,272.5 Z"/></g>
<g><path style="opacity:0.232" fill="#647180" d="M 233.5,281.5 C 227.051,281.232 220.717,281.898 214.5,283.5C 215.6,282.442 216.934,281.608 218.5,281C 223.684,280.184 228.684,280.35 233.5,281.5 Z"/></g>
<g><path style="opacity:0.29" fill="#7f8996" d="M 291.5,279.5 C 289.321,280.677 286.987,281.677 284.5,282.5C 286.09,280.179 288.423,279.179 291.5,279.5 Z"/></g>
<g><path style="opacity:0.4" fill="#adb4bc" d="M 166.5,283.5 C 168.404,283.738 169.738,284.738 170.5,286.5C 168.596,286.262 167.262,285.262 166.5,283.5 Z"/></g>
<g><path style="opacity:0.518" fill="#747f8d" d="M 282.5,282.5 C 278.498,284.61 274.165,285.943 269.5,286.5C 273.403,284.102 277.736,282.769 282.5,282.5 Z"/></g>
<g><path style="opacity:0.647" fill="#8d96a1" d="M 170.5,286.5 C 173.089,287.419 175.089,289.086 176.5,291.5C 173.911,290.581 171.911,288.914 170.5,286.5 Z"/></g>
<g><path style="opacity:0.329" fill="#b3bac1" d="M 210.5,286.5 C 212.475,288.362 212.808,290.362 211.5,292.5C 211.617,290.516 210.95,288.85 209.5,287.5C 209.624,286.893 209.957,286.56 210.5,286.5 Z"/></g>
<g><path style="opacity:0.663" fill="#7c8794" d="M 176.5,291.5 C 179.089,292.419 181.089,294.086 182.5,296.5C 179.911,295.581 177.911,293.914 176.5,291.5 Z"/></g>
<g><path style="opacity:0.729" fill="#828b99" d="M 182.5,296.5 C 185.427,297.757 187.761,299.757 189.5,302.5C 186.573,301.243 184.239,299.243 182.5,296.5 Z"/></g>
<g><path style="opacity:0.678" fill="#7e8795" d="M 189.5,302.5 C 191.544,303.031 193.211,304.198 194.5,306C 196.134,306.494 197.801,306.66 199.5,306.5C 198.341,308.377 196.674,308.877 194.5,308C 192.627,306.296 190.96,304.463 189.5,302.5 Z"/></g>
</svg>
