<?xml version="1.0" encoding="UTF-8"?>
<!DOCTYPE svg PUBLIC "-//W3C//DTD SVG 1.1//EN" "http://www.w3.org/Graphics/SVG/1.1/DTD/svg11.dtd">
<svg xmlns="http://www.w3.org/2000/svg" version="1.1" width="300px" height="300px" style="shape-rendering:geometricPrecision; text-rendering:geometricPrecision; image-rendering:optimizeQuality; fill-rule:evenodd; clip-rule:evenodd" xmlns:xlink="http://www.w3.org/1999/xlink">
<g><path style="opacity:0.7" fill="#b7c0c8" d="M 89.5,113.5 C 87.6284,112.489 85.6284,111.655 83.5,111C 63.1424,110.214 42.8091,110.381 22.5,111.5C 24.8109,109.932 27.4776,109.098 30.5,109C 45.3914,108.618 60.2247,108.451 75,108.5C 78.4605,109.218 81.9605,109.718 85.5,110C 87.3237,110.66 88.657,111.827 89.5,113.5 Z"/></g>
<g><path style="opacity:0.998" fill="#143a53" d="M 89.5,113.5 C 90.1667,115.167 90.8333,116.833 91.5,118.5C 90.6851,119.429 89.8518,120.429 89,121.5C 88.3333,139.167 88.3333,156.833 89,174.5C 89.8518,175.571 90.6851,176.571 91.5,177.5C 91.1667,178.833 90.8333,180.167 90.5,181.5C 89.1979,183.822 87.1979,185.155 84.5,185.5C 84.9227,183.219 84.256,181.552 82.5,180.5C 82.5,180.167 82.5,179.833 82.5,179.5C 82.8417,178.662 83.5084,178.328 84.5,178.5C 85.4584,178.047 86.2917,177.381 87,176.5C 87.8288,157.662 87.6622,138.995 86.5,120.5C 85.5116,119.205 84.5116,117.872 83.5,116.5C 64.3377,115.338 45.0044,115.171 25.5,116C 24.944,116.383 24.6107,116.883 24.5,117.5C 24.5,118.167 24.1667,118.5 23.5,118.5C 22.8826,118.611 22.3826,118.944 22,119.5C 21.5001,137.83 21.3334,156.164 21.5,174.5C 20.942,153.653 19.942,134.32 18.5,116.5C 18.5,116.167 18.5,115.833 18.5,115.5C 20.1667,114.5 21.5,113.167 22.5,111.5C 42.8091,110.381 63.1424,110.214 83.5,111C 85.6284,111.655 87.6284,112.489 89.5,113.5 Z"/></g>
<g><path style="opacity:0.486" fill="#a9b3bc" d="M 22.5,111.5 C 21.5,113.167 20.1667,114.5 18.5,115.5C 18.8333,113.167 20.1667,111.833 22.5,111.5 Z"/></g>
<g><path style="opacity:0.155" fill="#a3afb9" d="M 83.5,116.5 C 63.5691,116.735 43.9024,117.069 24.5,117.5C 24.6107,116.883 24.944,116.383 25.5,116C 45.0044,115.171 64.3377,115.338 83.5,116.5 Z"/></g>
<g><path style="opacity:0.263" fill="#a2adb7" d="M 18.5,115.5 C 18.5,115.833 18.5,116.167 18.5,116.5C 18.1667,117.5 17.5,118.167 16.5,118.5C 16.427,116.973 17.0937,115.973 18.5,115.5 Z"/></g>
<g><path style="opacity:0.999" fill="#07344f" d="M 91.5,118.5 C 92.8106,138.209 92.8106,157.875 91.5,177.5C 90.6851,176.571 89.8518,175.571 89,174.5C 88.3333,156.833 88.3333,139.167 89,121.5C 89.8518,120.429 90.6851,119.429 91.5,118.5 Z"/></g>
<g><path style="opacity:0.237" fill="#8e9ea9" d="M 16.5,119.5 C 16.5,138.833 16.5,158.167 16.5,177.5C 15.7326,176.828 15.0659,175.995 14.5,175C 15.713,162.328 15.713,149.662 14.5,137C 15.1476,131.067 15.8142,125.234 16.5,119.5 Z"/></g>
<g><path style="opacity:0.997" fill="#3db75b" d="M 73.5,121.5 C 75.8333,121.5 78.1667,121.5 80.5,121.5C 80.1667,126.167 79.8333,130.833 79.5,135.5C 77.5165,135.617 75.8498,134.95 74.5,133.5C 73.8933,133.624 73.56,133.957 73.5,134.5C 68.5,140.167 63.1667,145.5 57.5,150.5C 55.7839,150.371 54.1172,150.038 52.5,149.5C 51.4778,146.478 49.4778,144.478 46.5,143.5C 44.2459,144.415 42.2459,145.748 40.5,147.5C 39.1667,148.167 38.1667,149.167 37.5,150.5C 35.0381,153.464 32.3714,156.297 29.5,159C 27.9343,159.765 26.6009,159.598 25.5,158.5C 25.3433,157.127 25.51,155.793 26,154.5C 32.1667,148.333 38.3333,142.167 44.5,136C 45.448,135.517 46.448,135.351 47.5,135.5C 49.4076,139.08 52.0743,142.08 55.5,144.5C 57.914,143.089 59.5806,141.089 60.5,138.5C 64.0865,136.42 67.2532,133.754 70,130.5C 69.9725,128.583 69.1392,126.916 67.5,125.5C 69.3965,123.983 71.3965,122.65 73.5,121.5 Z"/></g>
<g><path style="opacity:0.235" fill="#dde1e3" d="M 260.5,128.5 C 262.948,127.527 265.615,127.194 268.5,127.5C 268.334,132.844 268.501,138.177 269,143.5C 270.704,141.627 272.537,139.96 274.5,138.5C 272.909,141.431 270.909,144.098 268.5,146.5C 267.833,140.833 267.167,135.167 266.5,129.5C 264.735,128.539 262.735,128.205 260.5,128.5 Z"/></g>
<g><path style="opacity:0.216" fill="#b1bbc1" d="M 105.5,129.5 C 110.65,128.349 115.984,128.183 121.5,129C 125.072,129.432 127.405,131.265 128.5,134.5C 126.315,132.238 123.648,130.738 120.5,130C 115.845,129.501 111.179,129.334 106.5,129.5C 106.167,129.5 105.833,129.5 105.5,129.5 Z"/></g>
<g><path style="opacity:0.937" fill="#7e8f9d" d="M 266.5,129.5 C 267.167,135.167 267.833,140.833 268.5,146.5C 268.44,147.043 268.107,147.376 267.5,147.5C 266.504,141.537 266.171,135.537 266.5,129.5 Z"/></g>
<g><path style="opacity:0.792" fill="#909da9" d="M 105.5,129.5 C 105.833,129.5 106.167,129.5 106.5,129.5C 106.5,140.167 106.5,150.833 106.5,161.5C 108.167,161.5 109.833,161.5 111.5,161.5C 111.187,157.958 111.521,154.625 112.5,151.5C 112.5,155.167 112.5,158.833 112.5,162.5C 110.167,162.5 107.833,162.5 105.5,162.5C 104.167,151.5 104.167,140.5 105.5,129.5 Z"/></g>
<g><path style="opacity:0.996" fill="#113852" d="M 106.5,129.5 C 111.179,129.334 115.845,129.501 120.5,130C 123.648,130.738 126.315,132.238 128.5,134.5C 129.833,138.5 129.833,142.5 128.5,146.5C 127.094,146.973 126.427,147.973 126.5,149.5C 126.158,150.338 125.492,150.672 124.5,150.5C 120.534,151.162 116.534,151.495 112.5,151.5C 111.521,154.625 111.187,157.958 111.5,161.5C 109.833,161.5 108.167,161.5 106.5,161.5C 106.5,150.833 106.5,140.167 106.5,129.5 Z M 120.5,136.5 C 123.158,143.188 120.824,146.188 113.5,145.5C 113.5,142.5 113.5,139.5 113.5,136.5C 115.833,136.5 118.167,136.5 120.5,136.5 Z"/></g>
<g><path style="opacity:0.997" fill="#123751" d="M 266.5,129.5 C 266.171,135.537 266.504,141.537 267.5,147.5C 268.107,147.376 268.44,147.043 268.5,146.5C 270.909,144.098 272.909,141.431 274.5,138.5C 277.388,137.99 279.721,138.656 281.5,140.5C 280.167,142.5 278.5,144.167 276.5,145.5C 274.194,146.375 273.527,147.708 274.5,149.5C 274.427,151.027 275.094,152.027 276.5,152.5C 276.738,154.404 277.738,155.738 279.5,156.5C 279.703,158.044 280.37,159.378 281.5,160.5C 278.565,161.898 275.898,161.565 273.5,159.5C 272.545,157.254 271.878,154.921 271.5,152.5C 269.821,152.285 268.821,152.952 268.5,154.5C 266.656,156.279 265.99,158.612 266.5,161.5C 264.833,161.5 263.167,161.5 261.5,161.5C 261.5,150.833 261.5,140.167 261.5,129.5C 263.167,129.5 264.833,129.5 266.5,129.5 Z"/></g>
<g><path style="opacity:0.847" fill="#b9e1c2" d="M 73.5,121.5 C 71.3965,122.65 69.3965,123.983 67.5,125.5C 69.1392,126.916 69.9725,128.583 70,130.5C 67.2532,133.754 64.0865,136.42 60.5,138.5C 63.0933,135.565 65.76,132.565 68.5,129.5C 64.2902,126.414 64.6235,123.914 69.5,122C 70.7932,121.51 72.1266,121.343 73.5,121.5 Z"/></g>
<g><path style="opacity:0.997" fill="#143a53" d="M 204.5,156.5 C 205.568,157.434 206.901,157.768 208.5,157.5C 208.5,159.167 208.5,160.833 208.5,162.5C 206.167,162.5 203.833,162.5 201.5,162.5C 199.973,162.573 198.973,161.906 198.5,160.5C 197.593,154.894 197.26,149.227 197.5,143.5C 196.167,143.5 194.833,143.5 193.5,143.5C 193.5,141.833 193.5,140.167 193.5,138.5C 194.833,138.5 196.167,138.5 197.5,138.5C 197.5,136.167 197.5,133.833 197.5,131.5C 199.5,131.5 201.5,131.5 203.5,131.5C 203.5,133.833 203.5,136.167 203.5,138.5C 205.167,138.5 206.833,138.5 208.5,138.5C 208.5,140.167 208.5,141.833 208.5,143.5C 206.833,143.5 205.167,143.5 203.5,143.5C 203.182,148.032 203.515,152.366 204.5,156.5 Z"/></g>
<g><path style="opacity:0.502" fill="#bae3c3" d="M 73.5,134.5 C 73.56,133.957 73.8933,133.624 74.5,133.5C 75.8498,134.95 77.5165,135.617 79.5,135.5C 79.8333,130.833 80.1667,126.167 80.5,121.5C 78.1667,121.5 75.8333,121.5 73.5,121.5C 75.3432,120.717 77.3432,120.05 79.5,119.5C 80.4776,119.977 81.3109,120.643 82,121.5C 81.8355,126.496 81.3355,131.496 80.5,136.5C 77.812,136.834 75.4786,136.168 73.5,134.5 Z"/></g>
<g><path style="opacity:0.949" fill="#a3dcaf" d="M 47.5,135.5 C 50.147,137.811 52.8136,140.144 55.5,142.5C 57.1848,141.047 58.8514,139.714 60.5,138.5C 59.5806,141.089 57.914,143.089 55.5,144.5C 52.0743,142.08 49.4076,139.08 47.5,135.5 Z"/></g>
<g><path style="opacity:0.169" fill="#8b9da8" d="M 86.5,120.5 C 87.6622,138.995 87.8288,157.662 87,176.5C 86.2917,177.381 85.4584,178.047 84.5,178.5C 85.9887,175.768 86.6554,172.768 86.5,169.5C 86.2416,153.483 86.2416,137.15 86.5,120.5 Z"/></g>
<g><path style="opacity:0.424" fill="#abb5be" d="M 150.5,140.5 C 145.971,138.351 141.305,138.018 136.5,139.5C 136.611,138.883 136.944,138.383 137.5,138C 140.833,137.333 144.167,137.333 147.5,138C 148.942,138.377 149.942,139.21 150.5,140.5 Z"/></g>
<g><path style="opacity:0.43" fill="#afb8c1" d="M 177.5,138.5 C 180.64,137.359 183.973,137.192 187.5,138C 188.056,138.383 188.389,138.883 188.5,139.5C 184.881,138.756 181.215,138.423 177.5,138.5 Z"/></g>
<g><path style="opacity:0.384" fill="#b0b9c1" d="M 243.5,138.5 C 244.793,137.842 246.293,137.508 248,137.5C 250.544,137.336 252.71,138.003 254.5,139.5C 250.881,138.756 247.215,138.423 243.5,138.5 Z"/></g>
<g><path style="opacity:0.388" fill="#c9d0d5" d="M 274.5,138.5 C 277.355,137.197 280.355,137.197 283.5,138.5C 283.145,139.522 282.478,140.189 281.5,140.5C 279.721,138.656 277.388,137.99 274.5,138.5 Z"/></g>
<g><path style="opacity:0.298" fill="#bfc6cc" d="M 217.5,138.5 C 220.64,137.359 223.973,137.192 227.5,138C 228.942,138.377 229.942,139.21 230.5,140.5C 226.364,138.817 222.031,138.15 217.5,138.5 Z"/></g>
<g><path style="opacity:0.307" fill="#8c9ba7" d="M 23.5,118.5 C 22.1795,137.827 22.1795,157.16 23.5,176.5C 22.5,176.167 21.8333,175.5 21.5,174.5C 21.3334,156.164 21.5001,137.83 22,119.5C 22.3826,118.944 22.8826,118.611 23.5,118.5 Z"/></g>
<g><path style="opacity:0.631" fill="#98a3ae" d="M 136.5,139.5 C 135.167,141.5 133.5,143.167 131.5,144.5C 132.167,141.833 133.833,140.167 136.5,139.5 Z"/></g>
<g><path style="opacity:0.997" fill="#1b3d56" d="M 150.5,140.5 C 150.685,142.196 151.519,143.529 153,144.5C 153.497,147.146 153.664,149.813 153.5,152.5C 148.125,152.172 142.792,152.505 137.5,153.5C 137.624,154.107 137.957,154.44 138.5,154.5C 138.414,155.496 138.748,156.329 139.5,157C 143.186,157.807 146.686,157.307 150,155.5C 151.95,155.707 153.116,156.707 153.5,158.5C 153.167,159.5 152.5,160.167 151.5,160.5C 147.658,162.002 143.658,162.668 139.5,162.5C 136.357,162.031 134.023,160.364 132.5,157.5C 131.627,153.232 131.294,148.898 131.5,144.5C 133.5,143.167 135.167,141.5 136.5,139.5C 141.305,138.018 145.971,138.351 150.5,140.5 Z M 145.5,144.5 C 145.611,145.117 145.944,145.617 146.5,146C 143.633,146.801 140.966,146.634 138.5,145.5C 140.717,144.631 143.05,144.298 145.5,144.5 Z"/></g>
<g><path style="opacity:0.754" fill="#a4afb8" d="M 177.5,138.5 C 173.992,141.283 172.658,144.949 173.5,149.5C 172.733,148.828 172.066,147.995 171.5,147C 172.451,146.282 172.617,145.449 172,144.5C 170.301,145.406 168.467,145.739 166.5,145.5C 167.287,143.896 168.62,143.229 170.5,143.5C 170.5,141.833 170.5,140.167 170.5,138.5C 167.215,138.269 164.715,139.603 163,142.5C 162.51,141.207 162.343,139.873 162.5,138.5C 160.833,138.5 159.167,138.5 157.5,138.5C 157.5,146.167 157.5,153.833 157.5,161.5C 159.167,161.5 160.833,161.5 162.5,161.5C 162.182,156.968 162.515,152.634 163.5,148.5C 163.5,153.167 163.5,157.833 163.5,162.5C 161.44,163.811 159.274,163.811 157,162.5C 156.774,159.905 156.274,157.405 155.5,155C 155.926,149.104 156.259,143.271 156.5,137.5C 159.394,137.042 161.894,137.709 164,139.5C 166.481,137.686 169.315,137.02 172.5,137.5C 172.343,138.873 172.51,140.207 173,141.5C 174.129,139.859 175.629,138.859 177.5,138.5 Z"/></g>
<g><path style="opacity:0.996" fill="#103650" d="M 166.5,145.5 C 166.5,146.167 166.167,146.5 165.5,146.5C 164.167,146.5 163.5,147.167 163.5,148.5C 162.515,152.634 162.182,156.968 162.5,161.5C 160.833,161.5 159.167,161.5 157.5,161.5C 157.5,153.833 157.5,146.167 157.5,138.5C 159.167,138.5 160.833,138.5 162.5,138.5C 162.343,139.873 162.51,141.207 163,142.5C 164.715,139.603 167.215,138.269 170.5,138.5C 170.5,140.167 170.5,141.833 170.5,143.5C 168.62,143.229 167.287,143.896 166.5,145.5 Z"/></g>
<g><path style="opacity:0.997" fill="#193b55" d="M 177.5,138.5 C 181.215,138.423 184.881,138.756 188.5,139.5C 190.385,141.053 191.385,143.053 191.5,145.5C 188.275,145.589 185.275,144.923 182.5,143.5C 181.274,143.52 180.274,143.853 179.5,144.5C 178.226,145.189 178.226,146.023 179.5,147C 182.824,147.943 186.157,148.776 189.5,149.5C 193.083,159.282 189.417,163.616 178.5,162.5C 176.62,162.771 175.287,162.104 174.5,160.5C 173.587,158.914 173.587,157.414 174.5,156C 177.324,155.657 179.991,156.157 182.5,157.5C 183.726,157.48 184.726,157.147 185.5,156.5C 186.774,155.811 186.774,154.977 185.5,154C 182.688,152.451 179.688,151.618 176.5,151.5C 174.973,151.573 173.973,150.906 173.5,149.5C 172.658,144.949 173.992,141.283 177.5,138.5 Z"/></g>
<g><path style="opacity:0.235" fill="#c3cad0" d="M 214.5,140.5 C 213.5,142.167 212.167,143.5 210.5,144.5C 208.81,144.242 206.81,144.242 204.5,144.5C 204.5,148.5 204.5,152.5 204.5,156.5C 203.515,152.366 203.182,148.032 203.5,143.5C 205.167,143.5 206.833,143.5 208.5,143.5C 208.5,141.833 208.5,140.167 208.5,138.5C 206.833,138.5 205.167,138.5 203.5,138.5C 203.5,136.167 203.5,133.833 203.5,131.5C 201.5,131.5 199.5,131.5 197.5,131.5C 197.5,133.833 197.5,136.167 197.5,138.5C 196.167,138.5 194.833,138.5 193.5,138.5C 193.5,140.167 193.5,141.833 193.5,143.5C 194.833,143.5 196.167,143.5 197.5,143.5C 197.26,149.227 197.593,154.894 198.5,160.5C 196.989,159.042 195.989,157.209 195.5,155C 196.568,151.94 196.568,148.607 195.5,145C 193.391,145.239 191.224,145.739 189,146.5C 185.859,145.678 182.693,145.011 179.5,144.5C 180.274,143.853 181.274,143.52 182.5,143.5C 185.275,144.923 188.275,145.589 191.5,145.5C 191.385,143.053 190.385,141.053 188.5,139.5C 189.496,139.414 190.329,139.748 191,140.5C 191.589,138.137 193.089,137.137 195.5,137.5C 196.409,135.239 196.742,133.072 196.5,131C 199.146,130.503 201.813,130.336 204.5,130.5C 204.5,132.833 204.5,135.167 204.5,137.5C 208.831,136.451 210.997,138.118 211,142.5C 211.816,141.177 212.983,140.511 214.5,140.5 Z"/></g>
<g><path style="opacity:0.996" fill="#1a3d56" d="M 217.5,138.5 C 222.031,138.15 226.364,138.817 230.5,140.5C 233.629,144.564 234.962,149.231 234.5,154.5C 234.5,154.833 234.5,155.167 234.5,155.5C 233.094,155.973 232.427,156.973 232.5,158.5C 232.167,159.5 231.5,160.167 230.5,160.5C 226.658,162.002 222.658,162.668 218.5,162.5C 215.966,162.741 214.3,161.741 213.5,159.5C 210.909,155.231 209.909,150.564 210.5,145.5C 210.5,145.167 210.5,144.833 210.5,144.5C 212.167,143.5 213.5,142.167 214.5,140.5C 214.973,139.094 215.973,138.427 217.5,138.5 Z M 219.5,144.5 C 225.103,144.274 227.769,146.774 227.5,152C 225.74,156.357 222.74,157.523 218.5,155.5C 218.672,154.508 218.338,153.842 217.5,153.5C 217.401,150.763 217.735,148.096 218.5,145.5C 219.167,145.5 219.5,145.167 219.5,144.5 Z"/></g>
<g><path style="opacity:0.997" fill="#193c55" d="M 243.5,138.5 C 247.215,138.423 250.881,138.756 254.5,139.5C 255.122,140.627 255.955,141.627 257,142.5C 257.544,144.845 256.544,146.179 254,146.5C 252.923,145.571 251.756,144.904 250.5,144.5C 249.903,143.861 249.07,143.528 248,143.5C 246.301,143.387 245.134,144.053 244.5,145.5C 242.974,146.492 242.307,147.992 242.5,150C 242.514,151.385 242.848,152.551 243.5,153.5C 244.689,157.33 247.022,158.33 250.5,156.5C 253.096,155.735 255.763,155.401 258.5,155.5C 257.559,157.772 256.226,159.772 254.5,161.5C 251.214,162.207 247.881,162.54 244.5,162.5C 243.883,162.611 243.383,162.944 243,163.5C 241.959,162.529 241.126,161.529 240.5,160.5C 239.396,158.611 238.063,156.945 236.5,155.5C 236.15,150.964 236.817,146.631 238.5,142.5C 239.539,140.469 241.205,139.136 243.5,138.5 Z"/></g>
<g><path style="opacity:0.655" fill="#c5e7cc" d="M 46.5,143.5 C 49.4778,144.478 51.4778,146.478 52.5,149.5C 50.215,147.882 48.215,145.882 46.5,143.5 Z"/></g>
<g><path style="opacity:0.165" fill="#9daab5" d="M 250.5,144.5 C 248.435,144.517 246.435,144.85 244.5,145.5C 245.134,144.053 246.301,143.387 248,143.5C 249.07,143.528 249.903,143.861 250.5,144.5 Z"/></g>
<g><path style="opacity:0.456" fill="#93a0ab" d="M 89.5,113.5 C 91.1733,114.343 92.34,115.676 93,117.5C 93.6667,137.833 93.6667,158.167 93,178.5C 92.6232,179.942 91.7899,180.942 90.5,181.5C 90.8333,180.167 91.1667,178.833 91.5,177.5C 92.8106,157.875 92.8106,138.209 91.5,118.5C 90.8333,116.833 90.1667,115.167 89.5,113.5 Z"/></g>
<g><path style="opacity:0.102" fill="#cad0d5" d="M 128.5,134.5 C 129.117,134.611 129.617,134.944 130,135.5C 130.181,138.695 130.681,141.695 131.5,144.5C 131.294,148.898 131.627,153.232 132.5,157.5C 130.495,156.746 129.828,155.579 130.5,154C 129.877,151.393 129.21,148.893 128.5,146.5C 129.833,142.5 129.833,138.5 128.5,134.5 Z"/></g>
<g><path style="opacity:0.424" fill="#b8c0c8" d="M 120.5,136.5 C 123.814,138.446 124.314,141.113 122,144.5C 119.096,146.227 115.93,146.893 112.5,146.5C 112.5,142.833 112.5,139.167 112.5,135.5C 115.385,135.194 118.052,135.527 120.5,136.5 Z M 120.5,136.5 C 118.167,136.5 115.833,136.5 113.5,136.5C 113.5,139.5 113.5,142.5 113.5,145.5C 120.824,146.188 123.158,143.188 120.5,136.5 Z"/></g>
<g><path style="opacity:0.961" fill="#ff9896" d="M 79.5,149.5 C 79.5,148.167 79.5,146.833 79.5,145.5C 78.1266,145.343 76.7932,145.51 75.5,146C 74.2949,147.376 72.9616,148.542 71.5,149.5C 71.5,149.167 71.5,148.833 71.5,148.5C 76.3593,141.599 79.0259,141.933 79.5,149.5 Z"/></g>
<g><path style="opacity:0.996" fill="#ff2f30" d="M 79.5,149.5 C 75.1667,151.833 71.8333,155.167 69.5,159.5C 66.4728,161.86 63.8062,164.527 61.5,167.5C 60.1667,167.5 59.5,168.167 59.5,169.5C 59.1667,169.5 58.8333,169.5 58.5,169.5C 55.9616,168.957 53.6282,167.957 51.5,166.5C 50.8333,165.167 49.8333,164.167 48.5,163.5C 47.5416,163.047 46.7083,162.381 46,161.5C 41.2979,166.37 36.4646,171.037 31.5,175.5C 28.3198,175.824 27.1531,174.49 28,171.5C 33.7029,165.965 39.2029,160.298 44.5,154.5C 48.812,156.289 52.4786,159.123 55.5,163C 56.5768,163.47 57.5768,163.303 58.5,162.5C 61.8333,159.833 64.8333,156.833 67.5,153.5C 68.5,151.833 69.8333,150.5 71.5,149.5C 72.9616,148.542 74.2949,147.376 75.5,146C 76.7932,145.51 78.1266,145.343 79.5,145.5C 79.5,146.833 79.5,148.167 79.5,149.5 Z"/></g>
<g><path style="opacity:0.082" fill="#e4e5e7" d="M 145.5,144.5 C 146.833,144.5 147.5,145.167 147.5,146.5C 144.375,147.479 141.042,147.813 137.5,147.5C 137.328,146.508 137.662,145.842 138.5,145.5C 140.966,146.634 143.633,146.801 146.5,146C 145.944,145.617 145.611,145.117 145.5,144.5 Z"/></g>
<g><path style="opacity:0.141" fill="#c7ced3" d="M 230.5,140.5 C 232.479,141.812 234.145,143.479 235.5,145.5C 236.141,144.007 237.141,143.007 238.5,142.5C 236.817,146.631 236.15,150.964 236.5,155.5C 235.833,155.167 235.167,154.833 234.5,154.5C 234.962,149.231 233.629,144.564 230.5,140.5 Z"/></g>
<g><path style="opacity:0.012" fill="#cfd6da" d="M 276.5,145.5 C 276.267,147.062 275.6,148.395 274.5,149.5C 273.527,147.708 274.194,146.375 276.5,145.5 Z"/></g>
<g><path style="opacity:0.067" fill="#cfd4da" d="M 128.5,146.5 C 128.573,148.027 127.906,149.027 126.5,149.5C 126.427,147.973 127.094,146.973 128.5,146.5 Z"/></g>
<g><path style="opacity:0.829" fill="#7a8b99" d="M 147.5,146.5 C 148.043,146.56 148.376,146.893 148.5,147.5C 144.685,148.808 141.019,148.808 137.5,147.5C 141.042,147.813 144.375,147.479 147.5,146.5 Z"/></g>
<g><path style="opacity:0.388" fill="#a0abb5" d="M 179.5,144.5 C 182.833,146.167 186.167,147.833 189.5,149.5C 186.157,148.776 182.824,147.943 179.5,147C 178.226,146.023 178.226,145.189 179.5,144.5 Z"/></g>
<g><path style="opacity:0.004" fill="#dbf1e0" d="M 40.5,147.5 C 40.5,149.5 39.5,150.5 37.5,150.5C 38.1667,149.167 39.1667,148.167 40.5,147.5 Z"/></g>
<g><path style="opacity:0.443" fill="#ffd8d8" d="M 71.5,148.5 C 71.5,148.833 71.5,149.167 71.5,149.5C 69.8333,150.5 68.5,151.833 67.5,153.5C 67.1667,153.5 66.8333,153.5 66.5,153.5C 67.1667,150.833 68.8333,149.167 71.5,148.5 Z"/></g>
<g><path style="opacity:0.204" fill="#c8ced3" d="M 165.5,146.5 C 164.877,151.935 164.21,157.268 163.5,162.5C 163.5,157.833 163.5,153.167 163.5,148.5C 163.5,147.167 164.167,146.5 165.5,146.5 Z"/></g>
<g><path style="opacity:0.208" fill="#bac3c9" d="M 218.5,145.5 C 217.735,148.096 217.401,150.763 217.5,153.5C 216.848,152.551 216.514,151.385 216.5,150C 216.307,147.992 216.974,146.492 218.5,145.5 Z"/></g>
<g><path style="opacity:0.216" fill="#9ba7b0" d="M 244.5,145.5 C 243.735,148.096 243.401,150.763 243.5,153.5C 242.848,152.551 242.514,151.385 242.5,150C 242.307,147.992 242.974,146.492 244.5,145.5 Z"/></g>
<g><path style="opacity:0.812" fill="#a1aab3" d="M 260.5,128.5 C 262.735,128.205 264.735,128.539 266.5,129.5C 264.833,129.5 263.167,129.5 261.5,129.5C 261.5,140.167 261.5,150.833 261.5,161.5C 263.167,161.5 264.833,161.5 266.5,161.5C 265.99,158.612 266.656,156.279 268.5,154.5C 270.505,162.5 267.839,165.166 260.5,162.5C 260.5,151.167 260.5,139.833 260.5,128.5 Z"/></g>
<g><path style="opacity:0.667" fill="#c5e6cd" d="M 47.5,135.5 C 46.448,135.351 45.448,135.517 44.5,136C 38.3333,142.167 32.1667,148.333 26,154.5C 25.51,155.793 25.3433,157.127 25.5,158.5C 24.3871,157.054 24.2204,155.387 25,153.5C 31.1667,147.333 37.3333,141.167 43.5,135C 45.0657,134.235 46.3991,134.402 47.5,135.5 Z"/></g>
<g><path style="opacity:0.216" fill="#c0d0cb" d="M 52.5,149.5 C 54.1172,150.038 55.7839,150.371 57.5,150.5C 55.5453,151.93 53.8786,151.597 52.5,149.5 Z"/></g>
<g><path style="opacity:0.376" fill="#bcc3ca" d="M 274.5,149.5 C 275.906,149.973 276.573,150.973 276.5,152.5C 275.094,152.027 274.427,151.027 274.5,149.5 Z"/></g>
<g><path style="opacity:0.145" fill="#c6cbd1" d="M 150.5,140.5 C 154.691,143.721 156.357,148.055 155.5,153.5C 153.801,153.34 152.134,153.506 150.5,154C 153.984,154.266 154.984,155.766 153.5,158.5C 153.116,156.707 151.95,155.707 150,155.5C 146.686,157.307 143.186,157.807 139.5,157C 138.748,156.329 138.414,155.496 138.5,154.5C 137.957,154.44 137.624,154.107 137.5,153.5C 142.792,152.505 148.125,152.172 153.5,152.5C 153.664,149.813 153.497,147.146 153,144.5C 151.519,143.529 150.685,142.196 150.5,140.5 Z M 138.5,154.5 C 141.64,153.359 144.973,153.192 148.5,154C 145.23,157.029 141.897,157.196 138.5,154.5 Z"/></g>
<g><path style="opacity:0.663" fill="#8897a4" d="M 176.5,151.5 C 179.688,151.618 182.688,152.451 185.5,154C 186.774,154.977 186.774,155.811 185.5,156.5C 182.81,154.271 179.81,152.604 176.5,151.5 Z"/></g>
<g><path style="opacity:0.427" fill="#ffb9b9" d="M 44.5,154.5 C 45.6009,153.402 46.9343,153.235 48.5,154C 51.1943,157.551 54.5276,160.051 58.5,161.5C 58.5,161.833 58.5,162.167 58.5,162.5C 57.5768,163.303 56.5768,163.47 55.5,163C 52.4786,159.123 48.812,156.289 44.5,154.5 Z"/></g>
<g><path style="opacity:1" fill="#5e7183" d="M 273.5,159.5 C 272.061,157.64 270.395,155.973 268.5,154.5C 268.821,152.952 269.821,152.285 271.5,152.5C 271.878,154.921 272.545,157.254 273.5,159.5 Z"/></g>
<g><path style="opacity:0.024" fill="#ffd7d7" d="M 79.5,149.5 C 76.5,153.167 73.1667,156.5 69.5,159.5C 71.8333,155.167 75.1667,151.833 79.5,149.5 Z"/></g>
<g><path style="opacity:0.843" fill="#798998" d="M 258.5,154.5 C 258.5,154.833 258.5,155.167 258.5,155.5C 255.763,155.401 253.096,155.735 250.5,156.5C 252.494,153.432 255.161,152.765 258.5,154.5 Z"/></g>
<g><path style="opacity:0.6" fill="#adb6bf" d="M 276.5,152.5 C 278.262,153.262 279.262,154.596 279.5,156.5C 277.738,155.738 276.738,154.404 276.5,152.5 Z"/></g>
<g><path style="opacity:0.376" fill="#bcc4ca" d="M 210.5,145.5 C 209.909,150.564 210.909,155.231 213.5,159.5C 211.269,157.924 209.603,155.757 208.5,153C 209.123,150.393 209.79,147.893 210.5,145.5 Z"/></g>
<g><path style="opacity:0.341" fill="#b4bcc4" d="M 219.5,144.5 C 224.997,142.291 227.997,144.291 228.5,150.5C 227.546,157.514 224.213,159.181 218.5,155.5C 222.74,157.523 225.74,156.357 227.5,152C 227.769,146.774 225.103,144.274 219.5,144.5 Z"/></g>
<g><path style="opacity:0.318" fill="#a1acb6" d="M 243.5,153.5 C 245.213,155.85 247.547,156.85 250.5,156.5C 247.022,158.33 244.689,157.33 243.5,153.5 Z"/></g>
<g><path style="opacity:0.961" fill="#ff7979" d="M 66.5,153.5 C 66.8333,153.5 67.1667,153.5 67.5,153.5C 64.8333,156.833 61.8333,159.833 58.5,162.5C 58.5,162.167 58.5,161.833 58.5,161.5C 60.8333,158.5 63.5,155.833 66.5,153.5 Z"/></g>
<g><path style="opacity:0.255" fill="#d3d8dc" d="M 124.5,150.5 C 124.217,151.289 123.717,151.956 123,152.5C 120.045,152.322 116.879,152.322 113.5,152.5C 113.5,156.167 113.5,159.833 113.5,163.5C 110.615,163.806 107.948,163.473 105.5,162.5C 107.833,162.5 110.167,162.5 112.5,162.5C 112.5,158.833 112.5,155.167 112.5,151.5C 116.534,151.495 120.534,151.162 124.5,150.5 Z"/></g>
<g><path style="opacity:0.631" fill="#aeb7bf" d="M 185.5,156.5 C 184.726,157.147 183.726,157.48 182.5,157.5C 179.991,156.157 177.324,155.657 174.5,156C 173.587,157.414 173.587,158.914 174.5,160.5C 171.266,159.006 170.933,157.173 173.5,155C 177.642,154.675 181.642,155.175 185.5,156.5 Z"/></g>
<g><path style="opacity:0.125" fill="#d4d8db" d="M 234.5,155.5 C 234.573,157.027 233.906,158.027 232.5,158.5C 232.427,156.973 233.094,155.973 234.5,155.5 Z"/></g>
<g><path style="opacity:0.125" fill="#d5d9dc" d="M 236.5,155.5 C 238.063,156.945 239.396,158.611 240.5,160.5C 238.003,159.871 236.67,158.204 236.5,155.5 Z"/></g>
<g><path style="opacity:0.537" fill="#bac2c9" d="M 204.5,156.5 C 206.167,156.5 207.833,156.5 209.5,156.5C 210.333,158.752 210.333,160.919 209.5,163C 206.633,163.801 203.966,163.634 201.5,162.5C 203.833,162.5 206.167,162.5 208.5,162.5C 208.5,160.833 208.5,159.167 208.5,157.5C 206.901,157.768 205.568,157.434 204.5,156.5 Z"/></g>
<g><path style="opacity:0.208" fill="#dfe3e5" d="M 260.5,128.5 C 260.5,139.833 260.5,151.167 260.5,162.5C 259.698,161.048 259.198,159.382 259,157.5C 258.252,159.751 256.752,161.084 254.5,161.5C 256.226,159.772 257.559,157.772 258.5,155.5C 258.5,155.167 258.5,154.833 258.5,154.5C 259.473,152.052 259.806,149.385 259.5,146.5C 257.323,146.586 255.323,147.253 253.5,148.5C 252.016,147.533 251.016,146.2 250.5,144.5C 251.756,144.904 252.923,145.571 254,146.5C 256.544,146.179 257.544,144.845 257,142.5C 255.955,141.627 255.122,140.627 254.5,139.5C 256.371,139.859 257.871,140.859 259,142.5C 259.588,138.309 259.422,134.475 258.5,131C 259.066,130.005 259.733,129.172 260.5,128.5 Z"/></g>
<g><path style="opacity:0.255" fill="#b1bac2" d="M 189.5,149.5 C 191.017,149.511 192.184,150.177 193,151.5C 193.842,159.172 190.342,163.505 182.5,164.5C 180.974,164.006 179.641,163.339 178.5,162.5C 189.417,163.616 193.083,159.282 189.5,149.5 Z"/></g>
<g><path style="opacity:0.012" fill="#bec6cd" d="M 151.5,160.5 C 150.653,161.966 149.32,162.8 147.5,163C 144.633,163.801 141.966,163.634 139.5,162.5C 143.658,162.668 147.658,162.002 151.5,160.5 Z"/></g>
<g><path style="opacity:0.024" fill="#c1c9cf" d="M 230.5,160.5 C 229.878,161.627 229.045,162.627 228,163.5C 224.843,163.693 221.676,163.359 218.5,162.5C 222.658,162.668 226.658,162.002 230.5,160.5 Z"/></g>
<g><path style="opacity:0.004" fill="#c7cdd3" d="M 254.5,161.5 C 252.883,162.972 250.883,163.639 248.5,163.5C 246.955,163.489 245.622,163.156 244.5,162.5C 247.881,162.54 251.214,162.207 254.5,161.5 Z"/></g>
<g><path style="opacity:0.125" fill="#b8c0c6" d="M 279.5,156.5 C 282.518,157.855 283.851,160.188 283.5,163.5C 280.813,163.664 278.146,163.497 275.5,163C 274.177,162.184 273.511,161.017 273.5,159.5C 275.898,161.565 278.565,161.898 281.5,160.5C 280.37,159.378 279.703,158.044 279.5,156.5 Z"/></g>
<g><path style="opacity:0.004" fill="#ffe5e5" d="M 48.5,163.5 C 49.8333,164.167 50.8333,165.167 51.5,166.5C 48.8049,166.437 47.8049,165.437 48.5,163.5 Z"/></g>
<g><path style="opacity:0.525" fill="#fecfd0" d="M 44.5,154.5 C 39.2029,160.298 33.7029,165.965 28,171.5C 27.1531,174.49 28.3198,175.824 31.5,175.5C 27.0005,177.163 25.5005,175.497 27,170.5C 32.4242,164.569 38.2575,159.236 44.5,154.5 Z"/></g>
<g><path style="opacity:0.012" fill="#ffe3e3" d="M 61.5,167.5 C 61.1667,168.5 60.5,169.167 59.5,169.5C 59.5,168.167 60.1667,167.5 61.5,167.5 Z"/></g>
<g><path style="opacity:0.29" fill="#fea9a8" d="M 51.5,166.5 C 53.6282,167.957 55.9616,168.957 58.5,169.5C 55.3124,171.056 52.979,170.056 51.5,166.5 Z"/></g>
<g><path style="opacity:0.144" fill="#a4b0b9" d="M 23.5,176.5 C 24.6266,177.122 25.6266,177.955 26.5,179C 45.1637,179.5 63.8304,179.667 82.5,179.5C 82.5,179.833 82.5,180.167 82.5,180.5C 63.4971,180.667 44.4971,180.5 25.5,180C 24.1772,179.184 23.5106,178.017 23.5,176.5 Z"/></g>
<g><path style="opacity:0.004" fill="#c0c6cd" d="M 17.5,179.5 C 19.1667,180.5 20.5,181.833 21.5,183.5C 19.1667,183.167 17.8333,181.833 17.5,179.5 Z"/></g>
<g><path style="opacity:0.998" fill="#0d3650" d="M 18.5,116.5 C 19.942,134.32 20.942,153.653 21.5,174.5C 21.8333,175.5 22.5,176.167 23.5,176.5C 23.5106,178.017 24.1772,179.184 25.5,180C 44.4971,180.5 63.4971,180.667 82.5,180.5C 84.256,181.552 84.9227,183.219 84.5,185.5C 64.5,185.5 44.5,185.5 24.5,185.5C 24.0269,184.094 23.0269,183.427 21.5,183.5C 20.5,181.833 19.1667,180.5 17.5,179.5C 16.6618,179.158 16.3284,178.492 16.5,177.5C 16.5,158.167 16.5,138.833 16.5,119.5C 16.5,119.167 16.5,118.833 16.5,118.5C 17.5,118.167 18.1667,117.5 18.5,116.5 Z"/></g>
<g><path style="opacity:0.318" fill="#a5afb8" d="M 21.5,183.5 C 23.0269,183.427 24.0269,184.094 24.5,185.5C 22.9731,185.573 21.9731,184.906 21.5,183.5 Z"/></g>
<g><path style="opacity:0.133" fill="#7b8d9d" d="M 24.5,185.5 C 44.5,185.5 64.5,185.5 84.5,185.5C 72.4314,186.176 60.2647,186.842 48,187.5C 43.3333,186.167 38.6667,186.167 34,187.5C 30.7296,186.868 27.5629,186.201 24.5,185.5 Z"/></g>
</svg>
